<svg width="157" height="36" viewBox="0 0 157 36" fill="none" xmlns="http://www.w3.org/2000/svg">
<g clip-path="url(#clip0_54_1819)">
<path d="M141.794 11.2934L141.502 11.3856C140.369 9.04207 138.749 7.17654 136.644 5.78896C134.571 4.40136 131.963 3.70755 128.822 3.70755C127.073 3.70755 125.405 4.06214 123.818 4.77132C122.23 5.44975 120.838 6.42107 119.639 7.68528C118.473 8.91868 117.534 10.4142 116.821 12.1718C116.109 13.9294 115.753 15.8721 115.753 17.9997C115.753 20.1273 116.109 22.0699 116.821 23.8276C117.534 25.5852 118.473 27.0961 119.639 28.3603C120.838 29.5937 122.23 30.5496 123.818 31.2281C125.405 31.9064 127.073 32.2455 128.822 32.2455C131.931 32.2455 134.457 31.783 136.401 30.858C138.377 29.9021 140.045 28.4529 141.405 26.5102L141.697 26.6024L141.6 29.5626C140.855 30.3027 139.996 30.9656 139.025 31.5515C138.053 32.1065 137 32.5844 135.867 32.9853C134.766 33.3554 133.616 33.6329 132.417 33.8179C131.219 34.0339 130.021 34.1419 128.822 34.1419C126.328 34.1419 123.948 33.7565 121.68 32.9856C119.413 32.2147 117.421 31.1354 115.704 29.7478C113.988 28.3295 112.627 26.6335 111.623 24.6601C110.619 22.6558 110.117 20.4356 110.117 17.9996C110.117 15.5637 110.619 13.3589 111.623 11.3855C112.627 9.38119 113.988 7.66983 115.704 6.25145C117.421 4.83301 119.413 3.75377 121.68 3.01373C123.948 2.24282 126.328 1.85737 128.822 1.85737C130.021 1.85737 131.219 1.94988 132.417 2.13489C133.616 2.3199 134.766 2.61284 135.867 3.01373C137 3.38375 138.053 3.8617 139.025 4.4476C139.996 5.00263 140.855 5.65016 141.6 6.3902L141.794 11.2934ZM34.7334 20.1277C34.3774 20.2817 34.0373 20.4823 33.7132 20.7293C33.3891 20.9758 33.2271 21.315 33.2271 21.7469V27.436C31.6724 29.5636 29.6804 31.2133 27.2512 32.385C24.822 33.5568 22.1337 34.1427 19.1862 34.1427C16.6923 34.1427 14.3117 33.7572 12.0444 32.9863C9.77718 32.2155 7.78523 31.1362 6.06858 29.7486C4.35195 28.3302 2.99159 26.6343 1.9875 24.6609C0.983462 22.6566 0.481445 20.4364 0.481445 18.0004C0.481445 15.5644 0.983462 13.3597 1.9875 11.3863C2.99159 9.38195 4.35195 7.67059 6.06858 6.25221C7.78523 4.83377 9.77718 3.75454 12.0444 3.01452C14.3117 2.24359 16.6923 1.85813 19.1862 1.85813C20.3847 1.85813 21.5831 1.95063 22.7815 2.13564C23.9799 2.32065 25.1297 2.6136 26.231 3.01448C27.3646 3.3845 28.4172 3.86246 29.3889 4.44835C30.3606 5.00339 31.2189 5.65092 31.9639 6.39096L32.1585 11.2937L31.867 11.3859C30.7334 9.04241 29.114 7.17686 27.0087 5.78928C24.9357 4.40168 22.3284 3.70787 19.1866 3.70787C17.4376 3.70787 15.7696 4.06248 14.1825 4.77168C12.5954 5.45008 11.2027 6.42139 10.0042 7.6856C8.8382 8.91903 7.89893 10.4146 7.18642 12.1722C6.4738 13.9298 6.1175 15.8724 6.1175 18C6.1175 20.0968 6.45759 22.024 7.13779 23.7816C7.85038 25.5392 8.78968 27.0502 9.95569 28.3145C11.1541 29.5478 12.5468 30.5191 14.1339 31.2284C15.721 31.9067 17.4052 32.2459 19.1866 32.2459C22.5551 32.2459 25.4378 31.6292 27.8346 30.3958V21.7465C27.8346 21.315 27.6565 20.9758 27.3005 20.7289C26.9764 20.4824 26.6525 20.2819 26.3287 20.1273L26.3731 19.8964C26.5349 19.9246 26.8264 19.9553 27.2477 19.9885C27.6689 20.0168 28.1062 20.0475 28.5595 20.0807H32.7379C33.1266 20.0525 33.4991 20.0218 33.8554 19.9885C34.2115 19.9603 34.4867 19.9296 34.681 19.8964L34.7334 20.1277ZM69.9234 2.82911C69.5993 2.9831 69.2754 3.18362 68.9517 3.43068C68.6277 3.67717 68.4496 4.1397 68.4176 4.81826C68.388 5.5583 68.3557 6.49878 68.3208 7.6397C68.3208 8.74979 68.306 10.014 68.2763 11.4324C68.2763 12.8508 68.2615 14.3926 68.2319 16.0577V21.2381C68.2023 23.2423 67.9431 24.9537 67.4543 26.3722C66.9684 27.7905 66.3206 28.9777 65.5109 29.9336C64.7336 30.8895 63.8591 31.645 62.8874 32.2C61.9481 32.755 61.0088 33.1713 60.0695 33.4488C59.1626 33.7574 58.3043 33.9424 57.4946 34.0038C56.6848 34.0964 56.0532 34.1426 55.5998 34.1426C53.7536 34.1426 51.9722 33.9113 50.2555 33.4488C48.5389 33.0173 47.0328 32.3081 45.7372 31.3212C44.4417 30.3344 43.4052 29.0548 42.6279 27.4822C41.8505 25.9096 41.4618 23.9978 41.4618 21.7468V16.5203V11.7099C41.4618 10.2298 41.447 8.90388 41.4174 7.73217C41.4174 6.52957 41.4026 5.55826 41.373 4.81821C41.3434 4.13982 41.1653 3.67729 40.8389 3.43064C40.5148 3.18414 40.1909 2.98362 39.8672 2.82907L39.9116 2.59809C40.0734 2.62629 40.3326 2.65702 40.6893 2.69028C41.078 2.71848 41.4666 2.74921 41.8553 2.78246C42.2766 2.78246 42.6814 2.79656 43.0699 2.82476H44.8189C45.2076 2.79656 45.6125 2.78246 46.0335 2.78246C46.4548 2.75426 46.8434 2.72353 47.1995 2.69028C47.5882 2.66208 47.8634 2.63135 48.0251 2.59809L48.0696 2.82907C47.7135 2.98306 47.3734 3.18358 47.0493 3.43064C46.7578 3.67713 46.5958 4.13966 46.5632 4.81821C46.5336 5.55826 46.5013 6.52957 46.4664 7.73217V21.7468C46.4664 25.1078 47.2923 27.5901 48.9441 29.1935C50.596 30.7969 53.0414 31.5986 56.2803 31.5986C57.2196 31.5986 58.2884 31.4906 59.4869 31.2746C60.6853 31.0281 61.8027 30.5347 62.8392 29.7945C63.908 29.0545 64.7987 28.0061 65.5113 26.6494C66.2562 25.2926 66.6287 23.4887 66.6287 21.2378C66.6287 18.8018 66.6139 16.7204 66.5843 14.9936C66.5843 13.236 66.5695 11.7405 66.5399 10.5071C66.5399 9.24285 66.525 8.16361 66.4954 7.26936C66.4658 6.37517 66.4335 5.55804 66.3985 4.81798C66.3689 4.13958 66.1908 3.67705 65.8644 3.4304C65.5403 3.1839 65.2164 2.98337 64.8927 2.82879L64.9372 2.59785C65.2933 2.65931 65.6981 2.72107 66.1517 2.78314C66.605 2.81134 67.0261 2.82544 67.415 2.82544C67.771 2.82544 68.1759 2.81134 68.6295 2.78314C69.1153 2.72168 69.5364 2.65992 69.8928 2.59785L69.9234 2.82911ZM105.178 11.2934L104.886 11.3856C103.752 9.04207 102.133 7.17654 100.028 5.78896C97.9547 4.40136 95.3474 3.70755 92.2057 3.70755C90.4566 3.70755 88.7885 4.06214 87.2014 4.77132C85.6143 5.44975 84.2216 6.42107 83.0232 7.68528C81.8572 8.91868 80.9179 10.4142 80.2053 12.1718C79.4928 13.9295 79.1365 15.8721 79.1365 17.9997C79.1365 20.1273 79.4928 22.0699 80.2054 23.8276C80.918 25.5852 81.8573 27.0961 83.0233 28.3603C84.2217 29.5937 85.6144 30.5496 87.2015 31.2281C88.7886 31.9064 90.4566 32.2455 92.2057 32.2455C95.3151 32.2455 97.8414 31.783 99.7848 30.858C101.761 29.9021 103.429 28.4529 104.789 26.5102L105.08 26.6024L104.984 29.5626C104.239 30.3027 103.38 30.9656 102.409 31.5514C101.437 32.1065 100.384 32.5844 99.2505 32.9853C98.1493 33.3553 96.9995 33.6328 95.8011 33.8178C94.6027 34.0339 93.4043 34.1419 92.2059 34.1419C89.7119 34.1419 87.3313 33.7564 85.0641 32.9855C82.7968 32.2146 80.8048 31.1354 79.0882 29.7478C77.3715 28.3294 76.0112 26.6335 75.0072 24.66C74.0031 22.6557 73.501 20.4356 73.501 17.9996C73.501 15.5636 74.0031 13.3589 75.0072 11.3855C76.0112 9.38115 77.3715 7.66979 79.0882 6.25141C80.8048 4.83297 82.7968 3.75373 85.0641 3.01369C87.3313 2.24278 89.7119 1.85733 92.2059 1.85733C93.4043 1.85733 94.6027 1.94984 95.8011 2.13485C96.9995 2.31986 98.1493 2.6128 99.2505 3.01369C100.384 3.38371 101.437 3.86166 102.409 4.44756C103.38 5.00259 104.239 5.65012 104.983 6.39016L105.178 11.2934ZM156.437 33.356C156.275 33.3278 156 33.2971 155.611 33.2638C155.255 33.2638 154.867 33.2497 154.445 33.2215C154.024 33.2215 153.619 33.2074 153.231 33.1792H150.316C149.927 33.2074 149.539 33.2381 149.15 33.2714C148.794 33.2996 148.519 33.3303 148.324 33.3636L148.28 33.1782C148.604 33.0243 148.928 32.8237 149.252 32.5767C149.576 32.3302 149.754 31.8677 149.786 31.1891C149.815 30.4491 149.83 29.6782 149.83 28.8765C149.86 28.0747 149.875 27.1651 149.875 26.1475V22.6785V18.007V13.3355V9.82028C149.875 8.80272 149.86 7.90849 149.83 7.13759C149.83 6.33588 149.815 5.565 149.786 4.82496C149.756 4.14656 149.578 3.68404 149.252 3.43738C148.927 3.15987 148.604 2.9441 148.28 2.79008L148.324 2.60483C148.519 2.66629 148.794 2.71254 149.15 2.74359C149.539 2.74359 149.927 2.75769 150.316 2.78589C150.737 2.8141 151.142 2.8282 151.531 2.8282H153.231C153.619 2.79999 154.024 2.78589 154.445 2.78589C154.867 2.75769 155.255 2.72696 155.611 2.69371C156 2.66551 156.275 2.63478 156.437 2.60152L156.481 2.78685C156.125 2.94084 155.785 3.15659 155.461 3.43411C155.17 3.6806 155.008 4.14313 154.975 4.82169C154.945 5.56173 154.913 6.3326 154.878 7.13432V28.8732C154.908 29.6749 154.94 30.4458 154.975 31.1858C155.005 31.8642 155.167 32.3268 155.461 32.5734C155.785 32.8199 156.125 33.0204 156.481 33.175L156.437 33.356Z" fill="white"/>
</g>
<defs>
<clipPath id="clip0_54_1819">
<rect width="156" height="36" fill="white" transform="translate(0.481445)"/>
</clipPath>
</defs>
</svg>
