<svg width="92" height="38" viewBox="0 0 92 38" fill="none" xmlns="http://www.w3.org/2000/svg">
<g clip-path="url(#clip0_54_1817)">
<path d="M86.8139 36.8682L73.3316 0.0322251L73.3224 0.00784302H73.0563L70.28 7.5775L65.2256 21.3583L65.2137 21.3474C63.462 19.8134 60.9905 18.8546 57.878 18.4975L56.9287 18.4003L57.8704 18.2804C63.0034 17.3651 66.4537 14.1481 66.4537 10.2723C66.4537 4.95733 61.4162 1.24754 54.2004 1.24754H39.1867V1.51665H43.5492V28.98L32.9542 0.0321348L32.9446 0.00784302H32.6785L29.9021 7.5775L19.1938 36.7734L19.1279 36.781C18.9449 36.8034 18.7639 36.8212 18.5848 36.8346C18.3154 36.8556 18.0476 36.8681 17.779 36.8681H6.9591L27.5263 1.51656L27.6792 1.25088H2.52467V12.1867H2.79157C2.83889 6.86003 5.96492 1.51656 12.8716 1.51656H21.2041L0.481445 37.133H28.3988V26.6557H28.1319C28.0955 31.2984 25.4434 35.7082 19.6762 36.7039L19.4928 36.7349L23.885 24.7547H36.1889L40.6225 36.8682H36.249V37.1331H53.4148V36.8682H49.0226V18.5956H54.0905C59.248 18.5956 62.2059 20.8821 62.2059 24.8669V28.1082C62.2059 28.4653 62.2304 28.9875 62.2574 29.4242V29.4401L59.5334 36.8665H55.9749V37.1314H63.3411V36.8665H59.8207L62.3014 30.104C62.3065 30.1694 62.309 30.2087 62.309 30.2087L62.3775 30.8181L62.4433 31.2212C62.8572 33.7149 63.8184 35.548 65.2991 36.6694L65.512 36.8229C66.637 37.599 68.0349 37.9921 69.6693 37.9921C71.8342 37.9921 73.2776 37.4565 74.4695 36.196L74.3132 36.05C73.2151 37.0559 72.2936 37.4633 71.139 37.4633C69.1718 37.4633 68.1422 35.0954 68.1422 32.7602V28.2188C68.1527 27.092 67.9749 25.9712 67.616 24.9021L67.567 24.7613V24.7562H76.5665L81.0001 36.8698H76.6266V37.1347H91.4814V36.8698L86.8139 36.8682ZM23.9829 24.4898L30.0442 7.96482L36.0918 24.4898H23.9829ZM49.0252 18.3298V1.51656H52.8936C58.0612 1.51656 60.7894 4.56504 60.7894 10.3293C60.7894 16.4598 59.2234 18.3298 54.0905 18.3298H49.0252ZM67.4622 24.4898L67.436 24.4244C67.036 23.4578 66.4538 22.5758 65.7204 21.826L65.4671 21.5745L65.4401 21.5494L70.4184 7.96482L76.4661 24.4898H67.4622Z" fill="white"/>
</g>
<defs>
<clipPath id="clip0_54_1817">
<rect width="91" height="38" fill="white" transform="translate(0.481445)"/>
</clipPath>
</defs>
</svg>
