<?xml version="1.0" standalone="no"?>
<!DOCTYPE svg PUBLIC "-//W3C//DTD SVG 1.1//EN" "http://www.w3.org/Graphics/SVG/1.1/DTD/svg11.dtd" >
<svg xmlns="http://www.w3.org/2000/svg" xmlns:xlink="http://www.w3.org/1999/xlink" version="1.1">
<metadata>
Created by FontForge 20201107 at Sat Nov  9 11:58:29 2024
 By 
 2017 Connary Fagen
</metadata>
<defs>
<font id="FONTSPRINGDEMO-IntegralCFDemiBoldItalic" horiz-adv-x="1020" >
  <font-face 
    font-family="FSP DEMO - ntgrl CF Dm Bld"
    font-weight="600"
    font-style="italic"
    font-stretch="normal"
    units-per-em="2048"
    panose-1="0 0 7 0 0 0 0 0 0 0"
    ascent="1638"
    descent="-410"
    x-height="1434"
    cap-height="1434"
    bbox="-222 -406 2362 1481"
    underline-thickness="85"
    underline-position="-170"
    slope="-18"
    unicode-range="U+0020-007E"
  />
<missing-glyph 
d="M172 336q-12 0 -15 -1v-168q1 -1 15 -1q31 0 42 20.5t11 64.5q0 45 -11 65t-42 20zM432 275v-41h-68v-65h80v-41h-130v247h130v-42h-80v-58h68zM169 125q-39 0 -61 3v244q51 7 63 7q56 0 80 -31t24 -97t-24.5 -96t-81.5 -30zM488 375h67l32 -136l33 136h68q3 -59 10 -247
h-49q0 61 -6 177l-34 -139h-46l-34 139h-2q-3 -87 -3 -177h-48q4 147 12 247zM823 125q-50 0 -70.5 29.5t-20.5 96.5t20.5 97.5t70.5 30.5t71 -30.5t21 -97.5q0 -66 -21 -96t-71 -30zM823 336q-24 0 -32.5 -20t-8.5 -65t8.5 -65t32.5 -20q25 0 33.5 20t8.5 65
q0 46 -8.5 65.5t-33.5 19.5zM806 847q41 0 66 -20.5t32 -42.5t7 -45q0 -36 -28 -60.5t-60 -28.5q-178 -20 -284 -123q5 13 14.5 34.5t38.5 77t59 97.5t72.5 76.5t82.5 34.5zM237 758q45 0 89 -33t74.5 -80t54.5 -93.5t36 -79.5l12 -33q-96 122 -266 122q-42 0 -74 25.5
t-32 63.5q0 44 28 76t78 32zM536 1012q32 -31 40.5 -85t-2.5 -109.5t-26.5 -106t-29.5 -82.5l-15 -32q17 160 -104 275q-30 30 -35.5 68.5t20.5 69.5q31 31 71 33.5t81 -31.5z" />
    <glyph glyph-name=".notdef" 
d="M172 336q-12 0 -15 -1v-168q1 -1 15 -1q31 0 42 20.5t11 64.5q0 45 -11 65t-42 20zM432 275v-41h-68v-65h80v-41h-130v247h130v-42h-80v-58h68zM169 125q-39 0 -61 3v244q51 7 63 7q56 0 80 -31t24 -97t-24.5 -96t-81.5 -30zM488 375h67l32 -136l33 136h68q3 -59 10 -247
h-49q0 61 -6 177l-34 -139h-46l-34 139h-2q-3 -87 -3 -177h-48q4 147 12 247zM823 125q-50 0 -70.5 29.5t-20.5 96.5t20.5 97.5t70.5 30.5t71 -30.5t21 -97.5q0 -66 -21 -96t-71 -30zM823 336q-24 0 -32.5 -20t-8.5 -65t8.5 -65t32.5 -20q25 0 33.5 20t8.5 65
q0 46 -8.5 65.5t-33.5 19.5zM806 847q41 0 66 -20.5t32 -42.5t7 -45q0 -36 -28 -60.5t-60 -28.5q-178 -20 -284 -123q5 13 14.5 34.5t38.5 77t59 97.5t72.5 76.5t82.5 34.5zM237 758q45 0 89 -33t74.5 -80t54.5 -93.5t36 -79.5l12 -33q-96 122 -266 122q-42 0 -74 25.5
t-32 63.5q0 44 28 76t78 32zM536 1012q32 -31 40.5 -85t-2.5 -109.5t-26.5 -106t-29.5 -82.5l-15 -32q17 160 -104 275q-30 30 -35.5 68.5t20.5 69.5q31 31 71 33.5t81 -31.5z" />
    <glyph glyph-name=".null" horiz-adv-x="0" 
 />
    <glyph glyph-name="nonmarkingreturn" horiz-adv-x="682" 
 />
    <glyph glyph-name="space" unicode=" " horiz-adv-x="440" 
 />
    <glyph glyph-name="exclam" unicode="!" 
d="M172 336q-12 0 -15 -1v-168q1 -1 15 -1q31 0 42 20.5t11 64.5q0 45 -11 65t-42 20zM432 275v-41h-68v-65h80v-41h-130v247h130v-42h-80v-58h68zM169 125q-39 0 -61 3v244q51 7 63 7q56 0 80 -31t24 -97t-24.5 -96t-81.5 -30zM488 375h67l32 -136l33 136h68q3 -59 10 -247
h-49q0 61 -6 177l-34 -139h-46l-34 139h-2q-3 -87 -3 -177h-48q4 147 12 247zM823 125q-50 0 -70.5 29.5t-20.5 96.5t20.5 97.5t70.5 30.5t71 -30.5t21 -97.5q0 -66 -21 -96t-71 -30zM823 336q-24 0 -32.5 -20t-8.5 -65t8.5 -65t32.5 -20q25 0 33.5 20t8.5 65
q0 46 -8.5 65.5t-33.5 19.5zM806 847q41 0 66 -20.5t32 -42.5t7 -45q0 -36 -28 -60.5t-60 -28.5q-178 -20 -284 -123q5 13 14.5 34.5t38.5 77t59 97.5t72.5 76.5t82.5 34.5zM237 758q45 0 89 -33t74.5 -80t54.5 -93.5t36 -79.5l12 -33q-96 122 -266 122q-42 0 -74 25.5
t-32 63.5q0 44 28 76t78 32zM536 1012q32 -31 40.5 -85t-2.5 -109.5t-26.5 -106t-29.5 -82.5l-15 -32q17 160 -104 275q-30 30 -35.5 68.5t20.5 69.5q31 31 71 33.5t81 -31.5z" />
    <glyph glyph-name="quotedbl" unicode="&#x22;" 
d="M172 336q-12 0 -15 -1v-168q1 -1 15 -1q31 0 42 20.5t11 64.5q0 45 -11 65t-42 20zM432 275v-41h-68v-65h80v-41h-130v247h130v-42h-80v-58h68zM169 125q-39 0 -61 3v244q51 7 63 7q56 0 80 -31t24 -97t-24.5 -96t-81.5 -30zM488 375h67l32 -136l33 136h68q3 -59 10 -247
h-49q0 61 -6 177l-34 -139h-46l-34 139h-2q-3 -87 -3 -177h-48q4 147 12 247zM823 125q-50 0 -70.5 29.5t-20.5 96.5t20.5 97.5t70.5 30.5t71 -30.5t21 -97.5q0 -66 -21 -96t-71 -30zM823 336q-24 0 -32.5 -20t-8.5 -65t8.5 -65t32.5 -20q25 0 33.5 20t8.5 65
q0 46 -8.5 65.5t-33.5 19.5zM806 847q41 0 66 -20.5t32 -42.5t7 -45q0 -36 -28 -60.5t-60 -28.5q-178 -20 -284 -123q5 13 14.5 34.5t38.5 77t59 97.5t72.5 76.5t82.5 34.5zM237 758q45 0 89 -33t74.5 -80t54.5 -93.5t36 -79.5l12 -33q-96 122 -266 122q-42 0 -74 25.5
t-32 63.5q0 44 28 76t78 32zM536 1012q32 -31 40.5 -85t-2.5 -109.5t-26.5 -106t-29.5 -82.5l-15 -32q17 160 -104 275q-30 30 -35.5 68.5t20.5 69.5q31 31 71 33.5t81 -31.5z" />
    <glyph glyph-name="numbersign" unicode="#" 
d="M172 336q-12 0 -15 -1v-168q1 -1 15 -1q31 0 42 20.5t11 64.5q0 45 -11 65t-42 20zM432 275v-41h-68v-65h80v-41h-130v247h130v-42h-80v-58h68zM169 125q-39 0 -61 3v244q51 7 63 7q56 0 80 -31t24 -97t-24.5 -96t-81.5 -30zM488 375h67l32 -136l33 136h68q3 -59 10 -247
h-49q0 61 -6 177l-34 -139h-46l-34 139h-2q-3 -87 -3 -177h-48q4 147 12 247zM823 125q-50 0 -70.5 29.5t-20.5 96.5t20.5 97.5t70.5 30.5t71 -30.5t21 -97.5q0 -66 -21 -96t-71 -30zM823 336q-24 0 -32.5 -20t-8.5 -65t8.5 -65t32.5 -20q25 0 33.5 20t8.5 65
q0 46 -8.5 65.5t-33.5 19.5zM806 847q41 0 66 -20.5t32 -42.5t7 -45q0 -36 -28 -60.5t-60 -28.5q-178 -20 -284 -123q5 13 14.5 34.5t38.5 77t59 97.5t72.5 76.5t82.5 34.5zM237 758q45 0 89 -33t74.5 -80t54.5 -93.5t36 -79.5l12 -33q-96 122 -266 122q-42 0 -74 25.5
t-32 63.5q0 44 28 76t78 32zM536 1012q32 -31 40.5 -85t-2.5 -109.5t-26.5 -106t-29.5 -82.5l-15 -32q17 160 -104 275q-30 30 -35.5 68.5t20.5 69.5q31 31 71 33.5t81 -31.5z" />
    <glyph glyph-name="dollar" unicode="$" 
d="M172 336q-12 0 -15 -1v-168q1 -1 15 -1q31 0 42 20.5t11 64.5q0 45 -11 65t-42 20zM432 275v-41h-68v-65h80v-41h-130v247h130v-42h-80v-58h68zM169 125q-39 0 -61 3v244q51 7 63 7q56 0 80 -31t24 -97t-24.5 -96t-81.5 -30zM488 375h67l32 -136l33 136h68q3 -59 10 -247
h-49q0 61 -6 177l-34 -139h-46l-34 139h-2q-3 -87 -3 -177h-48q4 147 12 247zM823 125q-50 0 -70.5 29.5t-20.5 96.5t20.5 97.5t70.5 30.5t71 -30.5t21 -97.5q0 -66 -21 -96t-71 -30zM823 336q-24 0 -32.5 -20t-8.5 -65t8.5 -65t32.5 -20q25 0 33.5 20t8.5 65
q0 46 -8.5 65.5t-33.5 19.5zM806 847q41 0 66 -20.5t32 -42.5t7 -45q0 -36 -28 -60.5t-60 -28.5q-178 -20 -284 -123q5 13 14.5 34.5t38.5 77t59 97.5t72.5 76.5t82.5 34.5zM237 758q45 0 89 -33t74.5 -80t54.5 -93.5t36 -79.5l12 -33q-96 122 -266 122q-42 0 -74 25.5
t-32 63.5q0 44 28 76t78 32zM536 1012q32 -31 40.5 -85t-2.5 -109.5t-26.5 -106t-29.5 -82.5l-15 -32q17 160 -104 275q-30 30 -35.5 68.5t20.5 69.5q31 31 71 33.5t81 -31.5z" />
    <glyph glyph-name="percent" unicode="%" 
d="M172 336q-12 0 -15 -1v-168q1 -1 15 -1q31 0 42 20.5t11 64.5q0 45 -11 65t-42 20zM432 275v-41h-68v-65h80v-41h-130v247h130v-42h-80v-58h68zM169 125q-39 0 -61 3v244q51 7 63 7q56 0 80 -31t24 -97t-24.5 -96t-81.5 -30zM488 375h67l32 -136l33 136h68q3 -59 10 -247
h-49q0 61 -6 177l-34 -139h-46l-34 139h-2q-3 -87 -3 -177h-48q4 147 12 247zM823 125q-50 0 -70.5 29.5t-20.5 96.5t20.5 97.5t70.5 30.5t71 -30.5t21 -97.5q0 -66 -21 -96t-71 -30zM823 336q-24 0 -32.5 -20t-8.5 -65t8.5 -65t32.5 -20q25 0 33.5 20t8.5 65
q0 46 -8.5 65.5t-33.5 19.5zM806 847q41 0 66 -20.5t32 -42.5t7 -45q0 -36 -28 -60.5t-60 -28.5q-178 -20 -284 -123q5 13 14.5 34.5t38.5 77t59 97.5t72.5 76.5t82.5 34.5zM237 758q45 0 89 -33t74.5 -80t54.5 -93.5t36 -79.5l12 -33q-96 122 -266 122q-42 0 -74 25.5
t-32 63.5q0 44 28 76t78 32zM536 1012q32 -31 40.5 -85t-2.5 -109.5t-26.5 -106t-29.5 -82.5l-15 -32q17 160 -104 275q-30 30 -35.5 68.5t20.5 69.5q31 31 71 33.5t81 -31.5z" />
    <glyph glyph-name="ampersand" unicode="&#x26;" 
d="M172 336q-12 0 -15 -1v-168q1 -1 15 -1q31 0 42 20.5t11 64.5q0 45 -11 65t-42 20zM432 275v-41h-68v-65h80v-41h-130v247h130v-42h-80v-58h68zM169 125q-39 0 -61 3v244q51 7 63 7q56 0 80 -31t24 -97t-24.5 -96t-81.5 -30zM488 375h67l32 -136l33 136h68q3 -59 10 -247
h-49q0 61 -6 177l-34 -139h-46l-34 139h-2q-3 -87 -3 -177h-48q4 147 12 247zM823 125q-50 0 -70.5 29.5t-20.5 96.5t20.5 97.5t70.5 30.5t71 -30.5t21 -97.5q0 -66 -21 -96t-71 -30zM823 336q-24 0 -32.5 -20t-8.5 -65t8.5 -65t32.5 -20q25 0 33.5 20t8.5 65
q0 46 -8.5 65.5t-33.5 19.5zM806 847q41 0 66 -20.5t32 -42.5t7 -45q0 -36 -28 -60.5t-60 -28.5q-178 -20 -284 -123q5 13 14.5 34.5t38.5 77t59 97.5t72.5 76.5t82.5 34.5zM237 758q45 0 89 -33t74.5 -80t54.5 -93.5t36 -79.5l12 -33q-96 122 -266 122q-42 0 -74 25.5
t-32 63.5q0 44 28 76t78 32zM536 1012q32 -31 40.5 -85t-2.5 -109.5t-26.5 -106t-29.5 -82.5l-15 -32q17 160 -104 275q-30 30 -35.5 68.5t20.5 69.5q31 31 71 33.5t81 -31.5z" />
    <glyph glyph-name="quotesingle" unicode="'" 
d="M172 336q-12 0 -15 -1v-168q1 -1 15 -1q31 0 42 20.5t11 64.5q0 45 -11 65t-42 20zM432 275v-41h-68v-65h80v-41h-130v247h130v-42h-80v-58h68zM169 125q-39 0 -61 3v244q51 7 63 7q56 0 80 -31t24 -97t-24.5 -96t-81.5 -30zM488 375h67l32 -136l33 136h68q3 -59 10 -247
h-49q0 61 -6 177l-34 -139h-46l-34 139h-2q-3 -87 -3 -177h-48q4 147 12 247zM823 125q-50 0 -70.5 29.5t-20.5 96.5t20.5 97.5t70.5 30.5t71 -30.5t21 -97.5q0 -66 -21 -96t-71 -30zM823 336q-24 0 -32.5 -20t-8.5 -65t8.5 -65t32.5 -20q25 0 33.5 20t8.5 65
q0 46 -8.5 65.5t-33.5 19.5zM806 847q41 0 66 -20.5t32 -42.5t7 -45q0 -36 -28 -60.5t-60 -28.5q-178 -20 -284 -123q5 13 14.5 34.5t38.5 77t59 97.5t72.5 76.5t82.5 34.5zM237 758q45 0 89 -33t74.5 -80t54.5 -93.5t36 -79.5l12 -33q-96 122 -266 122q-42 0 -74 25.5
t-32 63.5q0 44 28 76t78 32zM536 1012q32 -31 40.5 -85t-2.5 -109.5t-26.5 -106t-29.5 -82.5l-15 -32q17 160 -104 275q-30 30 -35.5 68.5t20.5 69.5q31 31 71 33.5t81 -31.5z" />
    <glyph glyph-name="parenleft" unicode="(" 
d="M172 336q-12 0 -15 -1v-168q1 -1 15 -1q31 0 42 20.5t11 64.5q0 45 -11 65t-42 20zM432 275v-41h-68v-65h80v-41h-130v247h130v-42h-80v-58h68zM169 125q-39 0 -61 3v244q51 7 63 7q56 0 80 -31t24 -97t-24.5 -96t-81.5 -30zM488 375h67l32 -136l33 136h68q3 -59 10 -247
h-49q0 61 -6 177l-34 -139h-46l-34 139h-2q-3 -87 -3 -177h-48q4 147 12 247zM823 125q-50 0 -70.5 29.5t-20.5 96.5t20.5 97.5t70.5 30.5t71 -30.5t21 -97.5q0 -66 -21 -96t-71 -30zM823 336q-24 0 -32.5 -20t-8.5 -65t8.5 -65t32.5 -20q25 0 33.5 20t8.5 65
q0 46 -8.5 65.5t-33.5 19.5zM806 847q41 0 66 -20.5t32 -42.5t7 -45q0 -36 -28 -60.5t-60 -28.5q-178 -20 -284 -123q5 13 14.5 34.5t38.5 77t59 97.5t72.5 76.5t82.5 34.5zM237 758q45 0 89 -33t74.5 -80t54.5 -93.5t36 -79.5l12 -33q-96 122 -266 122q-42 0 -74 25.5
t-32 63.5q0 44 28 76t78 32zM536 1012q32 -31 40.5 -85t-2.5 -109.5t-26.5 -106t-29.5 -82.5l-15 -32q17 160 -104 275q-30 30 -35.5 68.5t20.5 69.5q31 31 71 33.5t81 -31.5z" />
    <glyph glyph-name="parenright" unicode=")" 
d="M172 336q-12 0 -15 -1v-168q1 -1 15 -1q31 0 42 20.5t11 64.5q0 45 -11 65t-42 20zM432 275v-41h-68v-65h80v-41h-130v247h130v-42h-80v-58h68zM169 125q-39 0 -61 3v244q51 7 63 7q56 0 80 -31t24 -97t-24.5 -96t-81.5 -30zM488 375h67l32 -136l33 136h68q3 -59 10 -247
h-49q0 61 -6 177l-34 -139h-46l-34 139h-2q-3 -87 -3 -177h-48q4 147 12 247zM823 125q-50 0 -70.5 29.5t-20.5 96.5t20.5 97.5t70.5 30.5t71 -30.5t21 -97.5q0 -66 -21 -96t-71 -30zM823 336q-24 0 -32.5 -20t-8.5 -65t8.5 -65t32.5 -20q25 0 33.5 20t8.5 65
q0 46 -8.5 65.5t-33.5 19.5zM806 847q41 0 66 -20.5t32 -42.5t7 -45q0 -36 -28 -60.5t-60 -28.5q-178 -20 -284 -123q5 13 14.5 34.5t38.5 77t59 97.5t72.5 76.5t82.5 34.5zM237 758q45 0 89 -33t74.5 -80t54.5 -93.5t36 -79.5l12 -33q-96 122 -266 122q-42 0 -74 25.5
t-32 63.5q0 44 28 76t78 32zM536 1012q32 -31 40.5 -85t-2.5 -109.5t-26.5 -106t-29.5 -82.5l-15 -32q17 160 -104 275q-30 30 -35.5 68.5t20.5 69.5q31 31 71 33.5t81 -31.5z" />
    <glyph glyph-name="asterisk" unicode="*" 
d="M172 336q-12 0 -15 -1v-168q1 -1 15 -1q31 0 42 20.5t11 64.5q0 45 -11 65t-42 20zM432 275v-41h-68v-65h80v-41h-130v247h130v-42h-80v-58h68zM169 125q-39 0 -61 3v244q51 7 63 7q56 0 80 -31t24 -97t-24.5 -96t-81.5 -30zM488 375h67l32 -136l33 136h68q3 -59 10 -247
h-49q0 61 -6 177l-34 -139h-46l-34 139h-2q-3 -87 -3 -177h-48q4 147 12 247zM823 125q-50 0 -70.5 29.5t-20.5 96.5t20.5 97.5t70.5 30.5t71 -30.5t21 -97.5q0 -66 -21 -96t-71 -30zM823 336q-24 0 -32.5 -20t-8.5 -65t8.5 -65t32.5 -20q25 0 33.5 20t8.5 65
q0 46 -8.5 65.5t-33.5 19.5zM806 847q41 0 66 -20.5t32 -42.5t7 -45q0 -36 -28 -60.5t-60 -28.5q-178 -20 -284 -123q5 13 14.5 34.5t38.5 77t59 97.5t72.5 76.5t82.5 34.5zM237 758q45 0 89 -33t74.5 -80t54.5 -93.5t36 -79.5l12 -33q-96 122 -266 122q-42 0 -74 25.5
t-32 63.5q0 44 28 76t78 32zM536 1012q32 -31 40.5 -85t-2.5 -109.5t-26.5 -106t-29.5 -82.5l-15 -32q17 160 -104 275q-30 30 -35.5 68.5t20.5 69.5q31 31 71 33.5t81 -31.5z" />
    <glyph glyph-name="plus" unicode="+" 
d="M172 336q-12 0 -15 -1v-168q1 -1 15 -1q31 0 42 20.5t11 64.5q0 45 -11 65t-42 20zM432 275v-41h-68v-65h80v-41h-130v247h130v-42h-80v-58h68zM169 125q-39 0 -61 3v244q51 7 63 7q56 0 80 -31t24 -97t-24.5 -96t-81.5 -30zM488 375h67l32 -136l33 136h68q3 -59 10 -247
h-49q0 61 -6 177l-34 -139h-46l-34 139h-2q-3 -87 -3 -177h-48q4 147 12 247zM823 125q-50 0 -70.5 29.5t-20.5 96.5t20.5 97.5t70.5 30.5t71 -30.5t21 -97.5q0 -66 -21 -96t-71 -30zM823 336q-24 0 -32.5 -20t-8.5 -65t8.5 -65t32.5 -20q25 0 33.5 20t8.5 65
q0 46 -8.5 65.5t-33.5 19.5zM806 847q41 0 66 -20.5t32 -42.5t7 -45q0 -36 -28 -60.5t-60 -28.5q-178 -20 -284 -123q5 13 14.5 34.5t38.5 77t59 97.5t72.5 76.5t82.5 34.5zM237 758q45 0 89 -33t74.5 -80t54.5 -93.5t36 -79.5l12 -33q-96 122 -266 122q-42 0 -74 25.5
t-32 63.5q0 44 28 76t78 32zM536 1012q32 -31 40.5 -85t-2.5 -109.5t-26.5 -106t-29.5 -82.5l-15 -32q17 160 -104 275q-30 30 -35.5 68.5t20.5 69.5q31 31 71 33.5t81 -31.5z" />
    <glyph glyph-name="comma" unicode="," horiz-adv-x="687" 
d="M-114 -406q103 229 150 406h-183l115 358h518v-1q-89 -270 -185.5 -464.5t-182.5 -298.5h-232z" />
    <glyph glyph-name="hyphen" unicode="-" 
d="M172 336q-12 0 -15 -1v-168q1 -1 15 -1q31 0 42 20.5t11 64.5q0 45 -11 65t-42 20zM432 275v-41h-68v-65h80v-41h-130v247h130v-42h-80v-58h68zM169 125q-39 0 -61 3v244q51 7 63 7q56 0 80 -31t24 -97t-24.5 -96t-81.5 -30zM488 375h67l32 -136l33 136h68q3 -59 10 -247
h-49q0 61 -6 177l-34 -139h-46l-34 139h-2q-3 -87 -3 -177h-48q4 147 12 247zM823 125q-50 0 -70.5 29.5t-20.5 96.5t20.5 97.5t70.5 30.5t71 -30.5t21 -97.5q0 -66 -21 -96t-71 -30zM823 336q-24 0 -32.5 -20t-8.5 -65t8.5 -65t32.5 -20q25 0 33.5 20t8.5 65
q0 46 -8.5 65.5t-33.5 19.5zM806 847q41 0 66 -20.5t32 -42.5t7 -45q0 -36 -28 -60.5t-60 -28.5q-178 -20 -284 -123q5 13 14.5 34.5t38.5 77t59 97.5t72.5 76.5t82.5 34.5zM237 758q45 0 89 -33t74.5 -80t54.5 -93.5t36 -79.5l12 -33q-96 122 -266 122q-42 0 -74 25.5
t-32 63.5q0 44 28 76t78 32zM536 1012q32 -31 40.5 -85t-2.5 -109.5t-26.5 -106t-29.5 -82.5l-15 -32q17 160 -104 275q-30 30 -35.5 68.5t20.5 69.5q31 31 71 33.5t81 -31.5z" />
    <glyph glyph-name="period" unicode="." horiz-adv-x="554" 
d="M77 -27q-81 0 -132 51.5t-51 132.5q0 104 74 175t175 71q81 0 132 -52t51 -133q0 -103 -74 -174t-175 -71z" />
    <glyph glyph-name="slash" unicode="/" 
d="M172 336q-12 0 -15 -1v-168q1 -1 15 -1q31 0 42 20.5t11 64.5q0 45 -11 65t-42 20zM432 275v-41h-68v-65h80v-41h-130v247h130v-42h-80v-58h68zM169 125q-39 0 -61 3v244q51 7 63 7q56 0 80 -31t24 -97t-24.5 -96t-81.5 -30zM488 375h67l32 -136l33 136h68q3 -59 10 -247
h-49q0 61 -6 177l-34 -139h-46l-34 139h-2q-3 -87 -3 -177h-48q4 147 12 247zM823 125q-50 0 -70.5 29.5t-20.5 96.5t20.5 97.5t70.5 30.5t71 -30.5t21 -97.5q0 -66 -21 -96t-71 -30zM823 336q-24 0 -32.5 -20t-8.5 -65t8.5 -65t32.5 -20q25 0 33.5 20t8.5 65
q0 46 -8.5 65.5t-33.5 19.5zM806 847q41 0 66 -20.5t32 -42.5t7 -45q0 -36 -28 -60.5t-60 -28.5q-178 -20 -284 -123q5 13 14.5 34.5t38.5 77t59 97.5t72.5 76.5t82.5 34.5zM237 758q45 0 89 -33t74.5 -80t54.5 -93.5t36 -79.5l12 -33q-96 122 -266 122q-42 0 -74 25.5
t-32 63.5q0 44 28 76t78 32zM536 1012q32 -31 40.5 -85t-2.5 -109.5t-26.5 -106t-29.5 -82.5l-15 -32q17 160 -104 275q-30 30 -35.5 68.5t20.5 69.5q31 31 71 33.5t81 -31.5z" />
    <glyph glyph-name="zero" unicode="0" horiz-adv-x="1505" 
d="M550 -38q-355 0 -486 208.5t-4 592.5q115 350 346 529t558 179q354 0 485 -207t5 -593q-113 -350 -345 -529.5t-559 -179.5zM614 309q157 0 276 114t185 333q55 188 9 278.5t-185 90.5q-157 0 -275 -113t-185 -334q-56 -188 -10 -278.5t185 -90.5z" />
    <glyph glyph-name="one" unicode="1" horiz-adv-x="1252" 
d="M1123 1434l-360 -1106h299l-106 -328h-1116l105 328h390l220 676q-144 -87 -389 -74l114 350q198 0 415 154h428z" />
    <glyph glyph-name="two" unicode="2" horiz-adv-x="1368" 
d="M1425 1126q0 -96 -41 -179.5t-112 -146.5t-157.5 -117t-188 -100.5t-192 -85.5t-180.5 -84t-144 -85h773l-106 -328h-1263l65 201q30 94 108.5 177.5t179.5 144.5t216.5 116t225 101.5t199 90.5t143.5 94t54 102q0 105 -165 105q-234 0 -296 -169h-397
q55 241 251.5 374.5t497.5 133.5q257 0 393 -89t136 -256z" />
    <glyph glyph-name="three" unicode="3" horiz-adv-x="1431" 
d="M478 -38q-154 0 -267 29t-185.5 91t-87.5 157t28 227h369q-9 -49 4.5 -82.5t46.5 -50.5t72.5 -24t92.5 -7q144 0 237 49t93 129q0 128 -251 128h-80l78 245h72q142 0 235.5 46t93.5 125q0 40 -30 65.5t-71.5 34.5t-94.5 9q-242 0 -309 -169h-365q30 135 99.5 234.5
t169.5 158t217.5 86.5t255.5 28q248 0 387 -87t139 -234q0 -132 -90 -236t-250 -158l-8 -26q88 -31 144.5 -102t56.5 -172q0 -98 -45.5 -180t-122.5 -139.5t-180 -97.5t-217.5 -58.5t-236.5 -18.5z" />
    <glyph glyph-name="four" unicode="4" 
d="M172 336q-12 0 -15 -1v-168q1 -1 15 -1q31 0 42 20.5t11 64.5q0 45 -11 65t-42 20zM432 275v-41h-68v-65h80v-41h-130v247h130v-42h-80v-58h68zM169 125q-39 0 -61 3v244q51 7 63 7q56 0 80 -31t24 -97t-24.5 -96t-81.5 -30zM488 375h67l32 -136l33 136h68q3 -59 10 -247
h-49q0 61 -6 177l-34 -139h-46l-34 139h-2q-3 -87 -3 -177h-48q4 147 12 247zM823 125q-50 0 -70.5 29.5t-20.5 96.5t20.5 97.5t70.5 30.5t71 -30.5t21 -97.5q0 -66 -21 -96t-71 -30zM823 336q-24 0 -32.5 -20t-8.5 -65t8.5 -65t32.5 -20q25 0 33.5 20t8.5 65
q0 46 -8.5 65.5t-33.5 19.5zM806 847q41 0 66 -20.5t32 -42.5t7 -45q0 -36 -28 -60.5t-60 -28.5q-178 -20 -284 -123q5 13 14.5 34.5t38.5 77t59 97.5t72.5 76.5t82.5 34.5zM237 758q45 0 89 -33t74.5 -80t54.5 -93.5t36 -79.5l12 -33q-96 122 -266 122q-42 0 -74 25.5
t-32 63.5q0 44 28 76t78 32zM536 1012q32 -31 40.5 -85t-2.5 -109.5t-26.5 -106t-29.5 -82.5l-15 -32q17 160 -104 275q-30 30 -35.5 68.5t20.5 69.5q31 31 71 33.5t81 -31.5z" />
    <glyph glyph-name="five" unicode="5" horiz-adv-x="1387" 
d="M464 -38q-301 0 -435 133.5t-58 367.5h370q-5 -47 9 -80t43.5 -51t65 -25.5t80.5 -7.5q158 0 249 73t91 172q0 70 -49.5 110.5t-155.5 40.5q-186 0 -295 -104h-370l279 843h1122l-106 -326h-756l-80 -231q59 24 89.5 35t111 26.5t164.5 15.5q197 0 316 -94.5t119 -272.5
q0 -181 -98 -323t-281.5 -222t-424.5 -80z" />
    <glyph glyph-name="six" unicode="6" horiz-adv-x="1464" 
d="M1447 998h-339q14 77 -38.5 117t-147.5 40q-53 0 -99 -8t-97.5 -30t-93.5 -58.5t-81 -97.5t-66 -142q146 92 384 92q218 0 341 -84t123 -264q0 -183 -103.5 -321t-277.5 -209t-389 -71q-135 0 -238.5 37t-168 105t-97 159t-32.5 203q0 125 27.5 246.5t80.5 234t136.5 208
t188.5 166t243 110.5t294 40q172 0 294 -60.5t164 -165.5t-8 -247zM742 657q-141 0 -230 -74t-89 -173q0 -64 50.5 -101.5t144.5 -37.5q135 0 227 74t92 177q0 66 -53 100.5t-142 34.5z" />
    <glyph glyph-name="seven" unicode="7" horiz-adv-x="1307" 
d="M282 1434h1222l-111 -338l-1043 -1096h-461l1055 1096h-773z" />
    <glyph glyph-name="eight" unicode="8" horiz-adv-x="1442" 
d="M529 -38q-152 0 -267 29t-183 81.5t-101.5 119t-33.5 146.5q0 149 99.5 265t282.5 180l10 23q-92 78 -92 213q0 200 180.5 326t476.5 126q249 0 373.5 -86t124.5 -231q0 -119 -73 -206t-191 -141l-7 -20q79 -50 126.5 -130.5t47.5 -182.5q0 -161 -106 -279t-279 -175.5
t-388 -57.5zM770 899q103 0 171.5 44.5t68.5 119.5q0 118 -162 118q-103 0 -170 -47t-67 -119q0 -116 159 -116zM572 280q143 0 232 62.5t89 154.5q0 40 -18 69.5t-49.5 45t-67 23t-77.5 7.5q-143 0 -231 -63t-88 -156q0 -76 59 -109.5t151 -33.5z" />
    <glyph glyph-name="nine" unicode="9" horiz-adv-x="1464" 
d="M901 1471q267 0 401.5 -136.5t134.5 -366.5q0 -150 -38.5 -294.5t-118.5 -273.5t-193 -226.5t-272.5 -154.5t-346.5 -57q-173 0 -295 60.5t-164 165.5t8 247h340q-14 -77 38.5 -117t147.5 -40q53 0 99 8t97.5 30t93.5 58.5t81 97.5t66 142q-146 -92 -384 -92
q-218 0 -341.5 84t-123.5 264q0 183 103.5 321t277.5 209t389 71zM722 777q141 0 230 74t89 173q0 64 -50 101t-144 37q-135 0 -227.5 -74t-92.5 -177q0 -65 53 -99.5t142 -34.5z" />
    <glyph glyph-name="colon" unicode=":" horiz-adv-x="556" 
d="M365 862q-81 0 -131.5 51.5t-50.5 132.5q0 104 74 175t175 71q81 0 131.5 -51.5t50.5 -132.5q0 -104 -74 -175t-175 -71zM128 126q-81 0 -132 52t-51 133q0 103 74.5 174t175.5 71q81 0 131.5 -51.5t50.5 -132.5q0 -104 -74 -175t-175 -71z" />
    <glyph glyph-name="semicolon" unicode=";" horiz-adv-x="636" 
d="M365 862q-81 0 -131.5 51.5t-50.5 132.5q0 104 74 175t175 71q81 0 131.5 -51.5t50.5 -132.5q0 -104 -74 -175t-175 -71zM-82 -241q102 227 150 407h-182l114 358h519v-2q-89 -270 -186 -464.5t-183 -298.5h-232z" />
    <glyph glyph-name="less" unicode="&#x3c;" 
d="M172 336q-12 0 -15 -1v-168q1 -1 15 -1q31 0 42 20.5t11 64.5q0 45 -11 65t-42 20zM432 275v-41h-68v-65h80v-41h-130v247h130v-42h-80v-58h68zM169 125q-39 0 -61 3v244q51 7 63 7q56 0 80 -31t24 -97t-24.5 -96t-81.5 -30zM488 375h67l32 -136l33 136h68q3 -59 10 -247
h-49q0 61 -6 177l-34 -139h-46l-34 139h-2q-3 -87 -3 -177h-48q4 147 12 247zM823 125q-50 0 -70.5 29.5t-20.5 96.5t20.5 97.5t70.5 30.5t71 -30.5t21 -97.5q0 -66 -21 -96t-71 -30zM823 336q-24 0 -32.5 -20t-8.5 -65t8.5 -65t32.5 -20q25 0 33.5 20t8.5 65
q0 46 -8.5 65.5t-33.5 19.5zM806 847q41 0 66 -20.5t32 -42.5t7 -45q0 -36 -28 -60.5t-60 -28.5q-178 -20 -284 -123q5 13 14.5 34.5t38.5 77t59 97.5t72.5 76.5t82.5 34.5zM237 758q45 0 89 -33t74.5 -80t54.5 -93.5t36 -79.5l12 -33q-96 122 -266 122q-42 0 -74 25.5
t-32 63.5q0 44 28 76t78 32zM536 1012q32 -31 40.5 -85t-2.5 -109.5t-26.5 -106t-29.5 -82.5l-15 -32q17 160 -104 275q-30 30 -35.5 68.5t20.5 69.5q31 31 71 33.5t81 -31.5z" />
    <glyph glyph-name="equal" unicode="=" 
d="M172 336q-12 0 -15 -1v-168q1 -1 15 -1q31 0 42 20.5t11 64.5q0 45 -11 65t-42 20zM432 275v-41h-68v-65h80v-41h-130v247h130v-42h-80v-58h68zM169 125q-39 0 -61 3v244q51 7 63 7q56 0 80 -31t24 -97t-24.5 -96t-81.5 -30zM488 375h67l32 -136l33 136h68q3 -59 10 -247
h-49q0 61 -6 177l-34 -139h-46l-34 139h-2q-3 -87 -3 -177h-48q4 147 12 247zM823 125q-50 0 -70.5 29.5t-20.5 96.5t20.5 97.5t70.5 30.5t71 -30.5t21 -97.5q0 -66 -21 -96t-71 -30zM823 336q-24 0 -32.5 -20t-8.5 -65t8.5 -65t32.5 -20q25 0 33.5 20t8.5 65
q0 46 -8.5 65.5t-33.5 19.5zM806 847q41 0 66 -20.5t32 -42.5t7 -45q0 -36 -28 -60.5t-60 -28.5q-178 -20 -284 -123q5 13 14.5 34.5t38.5 77t59 97.5t72.5 76.5t82.5 34.5zM237 758q45 0 89 -33t74.5 -80t54.5 -93.5t36 -79.5l12 -33q-96 122 -266 122q-42 0 -74 25.5
t-32 63.5q0 44 28 76t78 32zM536 1012q32 -31 40.5 -85t-2.5 -109.5t-26.5 -106t-29.5 -82.5l-15 -32q17 160 -104 275q-30 30 -35.5 68.5t20.5 69.5q31 31 71 33.5t81 -31.5z" />
    <glyph glyph-name="greater" unicode="&#x3e;" 
d="M172 336q-12 0 -15 -1v-168q1 -1 15 -1q31 0 42 20.5t11 64.5q0 45 -11 65t-42 20zM432 275v-41h-68v-65h80v-41h-130v247h130v-42h-80v-58h68zM169 125q-39 0 -61 3v244q51 7 63 7q56 0 80 -31t24 -97t-24.5 -96t-81.5 -30zM488 375h67l32 -136l33 136h68q3 -59 10 -247
h-49q0 61 -6 177l-34 -139h-46l-34 139h-2q-3 -87 -3 -177h-48q4 147 12 247zM823 125q-50 0 -70.5 29.5t-20.5 96.5t20.5 97.5t70.5 30.5t71 -30.5t21 -97.5q0 -66 -21 -96t-71 -30zM823 336q-24 0 -32.5 -20t-8.5 -65t8.5 -65t32.5 -20q25 0 33.5 20t8.5 65
q0 46 -8.5 65.5t-33.5 19.5zM806 847q41 0 66 -20.5t32 -42.5t7 -45q0 -36 -28 -60.5t-60 -28.5q-178 -20 -284 -123q5 13 14.5 34.5t38.5 77t59 97.5t72.5 76.5t82.5 34.5zM237 758q45 0 89 -33t74.5 -80t54.5 -93.5t36 -79.5l12 -33q-96 122 -266 122q-42 0 -74 25.5
t-32 63.5q0 44 28 76t78 32zM536 1012q32 -31 40.5 -85t-2.5 -109.5t-26.5 -106t-29.5 -82.5l-15 -32q17 160 -104 275q-30 30 -35.5 68.5t20.5 69.5q31 31 71 33.5t81 -31.5z" />
    <glyph glyph-name="question" unicode="?" horiz-adv-x="1392" 
d="M413 512q13 71 46.5 129.5t78.5 96t99.5 69.5t108.5 52t104.5 41t89.5 38.5t62.5 43t23.5 56.5q0 43 -55.5 69t-151.5 26q-249 0 -331 -205h-386q31 146 104 253t179.5 169.5t232.5 91.5t278 29q262 0 421 -90t159 -261q0 -71 -26 -132t-68.5 -104t-97.5 -81.5
t-112.5 -65.5t-115 -55t-103.5 -52t-78 -54.5t-39 -63.5h-423zM514 -27q-81 0 -132 51.5t-51 132.5q0 104 74 175t175 71q81 0 132 -52t51 -133q0 -103 -74 -174t-175 -71z" />
    <glyph glyph-name="at" unicode="@" 
d="M172 336q-12 0 -15 -1v-168q1 -1 15 -1q31 0 42 20.5t11 64.5q0 45 -11 65t-42 20zM432 275v-41h-68v-65h80v-41h-130v247h130v-42h-80v-58h68zM169 125q-39 0 -61 3v244q51 7 63 7q56 0 80 -31t24 -97t-24.5 -96t-81.5 -30zM488 375h67l32 -136l33 136h68q3 -59 10 -247
h-49q0 61 -6 177l-34 -139h-46l-34 139h-2q-3 -87 -3 -177h-48q4 147 12 247zM823 125q-50 0 -70.5 29.5t-20.5 96.5t20.5 97.5t70.5 30.5t71 -30.5t21 -97.5q0 -66 -21 -96t-71 -30zM823 336q-24 0 -32.5 -20t-8.5 -65t8.5 -65t32.5 -20q25 0 33.5 20t8.5 65
q0 46 -8.5 65.5t-33.5 19.5zM806 847q41 0 66 -20.5t32 -42.5t7 -45q0 -36 -28 -60.5t-60 -28.5q-178 -20 -284 -123q5 13 14.5 34.5t38.5 77t59 97.5t72.5 76.5t82.5 34.5zM237 758q45 0 89 -33t74.5 -80t54.5 -93.5t36 -79.5l12 -33q-96 122 -266 122q-42 0 -74 25.5
t-32 63.5q0 44 28 76t78 32zM536 1012q32 -31 40.5 -85t-2.5 -109.5t-26.5 -106t-29.5 -82.5l-15 -32q17 160 -104 275q-30 30 -35.5 68.5t20.5 69.5q31 31 71 33.5t81 -31.5z" />
    <glyph glyph-name="A" unicode="A" horiz-adv-x="1662" 
d="M1019 0l-5 207h-637l-138 -207h-459l986 1434h603l75 -1434h-425zM591 526h414l-13 505h-64z" />
    <glyph glyph-name="B" unicode="B" horiz-adv-x="1541" 
d="M1529 1137q0 -117 -74.5 -214t-220.5 -145l-10 -25q40 -20 69 -41t56.5 -53.5t42 -80.5t14.5 -109q0 -120 -56.5 -211.5t-158.5 -147t-234.5 -83t-292.5 -27.5h-833l464 1434h780q454 0 454 -297zM881 855q102 0 164.5 43t62.5 106q0 99 -147 99h-341l-81 -248h342z
M759 331q104 0 171.5 46t67.5 126q0 47 -35.5 77.5t-117.5 30.5h-386l-90 -280h390z" />
    <glyph glyph-name="C" unicode="C" horiz-adv-x="1670" 
d="M672 -48q-305 0 -475.5 157t-170.5 435q0 146 48.5 286t141 257t216.5 205.5t284 138.5t335 50q154 0 282 -47t210 -128t116.5 -194t7.5 -240h-411q-7 116 -86 177.5t-201 61.5q-111 0 -209.5 -44t-165 -115.5t-104.5 -162.5t-38 -185q0 -135 84 -208t218 -73
q265 0 410 233h415q-52 -140 -135 -248.5t-174 -174t-199.5 -108t-204 -58t-194.5 -15.5z" />
    <glyph glyph-name="D" unicode="D" horiz-adv-x="1612" 
d="M-166 0l463 1434h647q327 0 484 -141t157 -395q0 -206 -78 -376t-214.5 -283.5t-323 -176t-401.5 -62.5h-734zM379 360h264q107 0 201.5 37t162 101t106.5 152.5t39 187.5q0 125 -80 180t-244 55h-217z" />
    <glyph glyph-name="E" unicode="E" horiz-adv-x="1394" 
d="M1452 1091h-839l-74 -229h831l-90 -280h-831l-77 -239h838l-113 -343h-1266l464 1434h1270z" />
    <glyph glyph-name="F" unicode="F" horiz-adv-x="1387" 
d="M1440 1075h-832l-81 -247h787l-111 -340h-787l-158 -488h-427l464 1434h1261z" />
    <glyph glyph-name="G" unicode="G" horiz-adv-x="1694" 
d="M969 1111q-111 0 -209.5 -44t-165 -115.5t-104.5 -162.5t-38 -185q0 -135 84 -208t218 -73q48 0 97 9t110 31.5t115 72t88 119.5h-381l75 227h801l-253 -782h-230l51 177q-97 -104 -244 -164.5t-323 -60.5q-298 0 -466 153t-168 429q0 149 49 291t141 260t216 207
t284 139t335 50q193 0 342 -71.5t224 -195t62 -274.5h-430q-28 81 -103 126t-177 45z" />
    <glyph glyph-name="H" unicode="H" horiz-adv-x="1590" 
d="M1328 1434h428l-461 -1434h-428l167 522h-602l-167 -522h-431l463 1434h428l-177 -555h602z" />
    <glyph glyph-name="I" unicode="I" horiz-adv-x="556" 
d="M-169 0l464 1434h429l-463 -1434h-430z" />
    <glyph glyph-name="J" unicode="J" horiz-adv-x="1396" 
d="M478 -48q-121 0 -214.5 20.5t-164 67t-106.5 117.5t-35.5 175.5t42.5 237.5h425q-78 -253 136 -253q42 0 81.5 11.5t80 39t76 79.5t59.5 126l277 861h428l-276 -861q-45 -142 -106.5 -249t-134 -177.5t-164 -114.5t-189 -62t-215.5 -18z" />
    <glyph glyph-name="K" unicode="K" horiz-adv-x="1633" 
d="M1770 1434l-778 -649l455 -785h-426l-332 572h-35l-280 -220l-115 -352h-428l468 1434h428l-177 -545h51l674 545h495z" />
    <glyph glyph-name="L" unicode="L" horiz-adv-x="1361" 
d="M-169 0l468 1434h428l-352 -1076h811l-116 -358h-1239z" />
    <glyph glyph-name="M" unicode="M" horiz-adv-x="1795" 
d="M-166 0l463 1434h522l-12 -871h38l546 869h568l-459 -1432h-413l231 710h-43l-435 -710h-325v710h-41l-230 -710h-410z" />
    <glyph glyph-name="N" unicode="N" horiz-adv-x="1626" 
d="M-169 0l468 1434h476l276 -850h46l279 850h418l-466 -1434h-464l-291 841h-46l-276 -841h-420z" />
    <glyph glyph-name="O" unicode="O" horiz-adv-x="1708" 
d="M672 -48q-307 0 -477.5 156t-170.5 431q0 183 78 355t211 301.5t322.5 207.5t400.5 78q307 0 477.5 -155.5t170.5 -429.5q0 -184 -78 -356t-211 -302t-322.5 -208t-400.5 -78zM742 323q110 0 208.5 45.5t164.5 117.5t105 162t40 180q0 136 -82.5 209.5t-211.5 73.5
q-110 0 -208 -45.5t-164 -117.5t-104 -162t-39 -180q0 -136 81.5 -209.5t209.5 -73.5z" />
    <glyph glyph-name="P" unicode="P" horiz-adv-x="1534" 
d="M1014 1434q263 0 396 -102t133 -320q0 -160 -59 -291.5t-162 -217.5t-241 -133t-298 -47h-416l-106 -323h-430l468 1434h715zM804 676q130 0 216 71.5t86 186.5q0 73 -44.5 108t-138.5 35h-310l-132 -403z" />
    <glyph glyph-name="Q" unicode="Q" horiz-adv-x="1720" 
d="M1684 896q0 -188 -80.5 -363t-224.5 -309l113 -164q-128 -119 -318 -244l-148 196q-168 -60 -354 -60q-307 0 -477.5 156t-170.5 431q0 183 78 355t211 301.5t322.5 207.5t400.5 78q307 0 477.5 -155.5t170.5 -429.5zM451 606q0 -136 81.5 -209.5t209.5 -73.5
q110 0 208.5 45.5t164.5 117.5t105 162t40 180q0 136 -82.5 209.5t-211.5 73.5q-110 0 -208 -45.5t-164 -117.5t-104 -162t-39 -180z" />
    <glyph glyph-name="R" unicode="R" horiz-adv-x="1546" 
d="M1553 1026q0 -186 -100.5 -330t-264.5 -225l111 -471h-412l-87 387h-411l-124 -387h-431l463 1434h732q524 0 524 -408zM611 1077l-119 -372l351 2q67 0 129 26t104 80t42 124q0 77 -44 108.5t-140 31.5h-323z" />
    <glyph glyph-name="S" unicode="S" horiz-adv-x="1501" 
d="M544 -48q-112 0 -204.5 12t-169.5 37t-129 66t-81 96.5t-28 131.5t32 168h365q-19 -91 58 -135.5t219 -44.5q95 0 170.5 16t125 54.5t49.5 93.5q0 48 -40.5 78.5t-145.5 49.5l-115 21q-172 29 -258 64q-230 93 -230 299q0 164 98.5 283t269 179t393.5 60q215 0 363 -59
t202 -171.5t-15 -275.5h-352q14 76 -49.5 126.5t-207.5 50.5q-133 0 -213.5 -44t-80.5 -118q0 -44 35.5 -73t119.5 -45l87 -17q24 -5 73 -14t81.5 -16t81.5 -19t82.5 -25.5t74 -32.5t67.5 -44t51 -56.5t35.5 -73t11.5 -89.5q0 -115 -44 -206.5t-120 -152t-182 -100t-225 -57
t-255 -17.5z" />
    <glyph glyph-name="T" unicode="T" horiz-adv-x="1578" 
d="M1754 1434l-116 -359h-513l-350 -1075h-430l350 1075h-523l115 359h1467z" />
    <glyph glyph-name="U" unicode="U" horiz-adv-x="1588" 
d="M602 -48q-381 0 -527.5 175.5t-36.5 507.5l261 799h435l-275 -833q-47 -140 4 -216t201 -76q153 0 249.5 82t153.5 254l256 789h435l-275 -842q-112 -345 -320.5 -492.5t-560.5 -147.5z" />
    <glyph glyph-name="V" unicode="V" horiz-adv-x="1674" 
d="M319 0l-73 1434h420l29 -1031h51l681 1031h467l-984 -1434h-591z" />
    <glyph glyph-name="W" unicode="W" horiz-adv-x="2165" 
d="M89 0l170 1434h429l-137 -977h40l537 977h345l-84 -977h39l490 977h444l-754 -1434h-579l82 761h-38l-407 -761h-577z" />
    <glyph glyph-name="X" unicode="X" horiz-adv-x="1571" 
d="M-222 0l719 713l15 38l-270 683h434l165 -442h40l406 442h476l-696 -693l-16 -38l278 -703h-452l-157 432h-39l-420 -432h-483z" />
    <glyph glyph-name="Y" unicode="Y" horiz-adv-x="1607" 
d="M1818 1434l-900 -989l-143 -445h-429l151 471l-260 963h432l140 -564h38l496 564h475z" />
    <glyph glyph-name="Z" unicode="Z" horiz-adv-x="1431" 
d="M-183 0l113 352l983 692l14 35h-746l118 355h1319l-114 -352l-983 -693l-14 -34h747l-117 -355h-1320z" />
    <glyph glyph-name="bracketleft" unicode="[" 
d="M172 336q-12 0 -15 -1v-168q1 -1 15 -1q31 0 42 20.5t11 64.5q0 45 -11 65t-42 20zM432 275v-41h-68v-65h80v-41h-130v247h130v-42h-80v-58h68zM169 125q-39 0 -61 3v244q51 7 63 7q56 0 80 -31t24 -97t-24.5 -96t-81.5 -30zM488 375h67l32 -136l33 136h68q3 -59 10 -247
h-49q0 61 -6 177l-34 -139h-46l-34 139h-2q-3 -87 -3 -177h-48q4 147 12 247zM823 125q-50 0 -70.5 29.5t-20.5 96.5t20.5 97.5t70.5 30.5t71 -30.5t21 -97.5q0 -66 -21 -96t-71 -30zM823 336q-24 0 -32.5 -20t-8.5 -65t8.5 -65t32.5 -20q25 0 33.5 20t8.5 65
q0 46 -8.5 65.5t-33.5 19.5zM806 847q41 0 66 -20.5t32 -42.5t7 -45q0 -36 -28 -60.5t-60 -28.5q-178 -20 -284 -123q5 13 14.5 34.5t38.5 77t59 97.5t72.5 76.5t82.5 34.5zM237 758q45 0 89 -33t74.5 -80t54.5 -93.5t36 -79.5l12 -33q-96 122 -266 122q-42 0 -74 25.5
t-32 63.5q0 44 28 76t78 32zM536 1012q32 -31 40.5 -85t-2.5 -109.5t-26.5 -106t-29.5 -82.5l-15 -32q17 160 -104 275q-30 30 -35.5 68.5t20.5 69.5q31 31 71 33.5t81 -31.5z" />
    <glyph glyph-name="backslash" unicode="\" 
d="M172 336q-12 0 -15 -1v-168q1 -1 15 -1q31 0 42 20.5t11 64.5q0 45 -11 65t-42 20zM432 275v-41h-68v-65h80v-41h-130v247h130v-42h-80v-58h68zM169 125q-39 0 -61 3v244q51 7 63 7q56 0 80 -31t24 -97t-24.5 -96t-81.5 -30zM488 375h67l32 -136l33 136h68q3 -59 10 -247
h-49q0 61 -6 177l-34 -139h-46l-34 139h-2q-3 -87 -3 -177h-48q4 147 12 247zM823 125q-50 0 -70.5 29.5t-20.5 96.5t20.5 97.5t70.5 30.5t71 -30.5t21 -97.5q0 -66 -21 -96t-71 -30zM823 336q-24 0 -32.5 -20t-8.5 -65t8.5 -65t32.5 -20q25 0 33.5 20t8.5 65
q0 46 -8.5 65.5t-33.5 19.5zM806 847q41 0 66 -20.5t32 -42.5t7 -45q0 -36 -28 -60.5t-60 -28.5q-178 -20 -284 -123q5 13 14.5 34.5t38.5 77t59 97.5t72.5 76.5t82.5 34.5zM237 758q45 0 89 -33t74.5 -80t54.5 -93.5t36 -79.5l12 -33q-96 122 -266 122q-42 0 -74 25.5
t-32 63.5q0 44 28 76t78 32zM536 1012q32 -31 40.5 -85t-2.5 -109.5t-26.5 -106t-29.5 -82.5l-15 -32q17 160 -104 275q-30 30 -35.5 68.5t20.5 69.5q31 31 71 33.5t81 -31.5z" />
    <glyph glyph-name="bracketright" unicode="]" 
d="M172 336q-12 0 -15 -1v-168q1 -1 15 -1q31 0 42 20.5t11 64.5q0 45 -11 65t-42 20zM432 275v-41h-68v-65h80v-41h-130v247h130v-42h-80v-58h68zM169 125q-39 0 -61 3v244q51 7 63 7q56 0 80 -31t24 -97t-24.5 -96t-81.5 -30zM488 375h67l32 -136l33 136h68q3 -59 10 -247
h-49q0 61 -6 177l-34 -139h-46l-34 139h-2q-3 -87 -3 -177h-48q4 147 12 247zM823 125q-50 0 -70.5 29.5t-20.5 96.5t20.5 97.5t70.5 30.5t71 -30.5t21 -97.5q0 -66 -21 -96t-71 -30zM823 336q-24 0 -32.5 -20t-8.5 -65t8.5 -65t32.5 -20q25 0 33.5 20t8.5 65
q0 46 -8.5 65.5t-33.5 19.5zM806 847q41 0 66 -20.5t32 -42.5t7 -45q0 -36 -28 -60.5t-60 -28.5q-178 -20 -284 -123q5 13 14.5 34.5t38.5 77t59 97.5t72.5 76.5t82.5 34.5zM237 758q45 0 89 -33t74.5 -80t54.5 -93.5t36 -79.5l12 -33q-96 122 -266 122q-42 0 -74 25.5
t-32 63.5q0 44 28 76t78 32zM536 1012q32 -31 40.5 -85t-2.5 -109.5t-26.5 -106t-29.5 -82.5l-15 -32q17 160 -104 275q-30 30 -35.5 68.5t20.5 69.5q31 31 71 33.5t81 -31.5z" />
    <glyph glyph-name="asciicircum" unicode="^" 
d="M172 336q-12 0 -15 -1v-168q1 -1 15 -1q31 0 42 20.5t11 64.5q0 45 -11 65t-42 20zM432 275v-41h-68v-65h80v-41h-130v247h130v-42h-80v-58h68zM169 125q-39 0 -61 3v244q51 7 63 7q56 0 80 -31t24 -97t-24.5 -96t-81.5 -30zM488 375h67l32 -136l33 136h68q3 -59 10 -247
h-49q0 61 -6 177l-34 -139h-46l-34 139h-2q-3 -87 -3 -177h-48q4 147 12 247zM823 125q-50 0 -70.5 29.5t-20.5 96.5t20.5 97.5t70.5 30.5t71 -30.5t21 -97.5q0 -66 -21 -96t-71 -30zM823 336q-24 0 -32.5 -20t-8.5 -65t8.5 -65t32.5 -20q25 0 33.5 20t8.5 65
q0 46 -8.5 65.5t-33.5 19.5zM806 847q41 0 66 -20.5t32 -42.5t7 -45q0 -36 -28 -60.5t-60 -28.5q-178 -20 -284 -123q5 13 14.5 34.5t38.5 77t59 97.5t72.5 76.5t82.5 34.5zM237 758q45 0 89 -33t74.5 -80t54.5 -93.5t36 -79.5l12 -33q-96 122 -266 122q-42 0 -74 25.5
t-32 63.5q0 44 28 76t78 32zM536 1012q32 -31 40.5 -85t-2.5 -109.5t-26.5 -106t-29.5 -82.5l-15 -32q17 160 -104 275q-30 30 -35.5 68.5t20.5 69.5q31 31 71 33.5t81 -31.5z" />
    <glyph glyph-name="underscore" unicode="_" 
d="M172 336q-12 0 -15 -1v-168q1 -1 15 -1q31 0 42 20.5t11 64.5q0 45 -11 65t-42 20zM432 275v-41h-68v-65h80v-41h-130v247h130v-42h-80v-58h68zM169 125q-39 0 -61 3v244q51 7 63 7q56 0 80 -31t24 -97t-24.5 -96t-81.5 -30zM488 375h67l32 -136l33 136h68q3 -59 10 -247
h-49q0 61 -6 177l-34 -139h-46l-34 139h-2q-3 -87 -3 -177h-48q4 147 12 247zM823 125q-50 0 -70.5 29.5t-20.5 96.5t20.5 97.5t70.5 30.5t71 -30.5t21 -97.5q0 -66 -21 -96t-71 -30zM823 336q-24 0 -32.5 -20t-8.5 -65t8.5 -65t32.5 -20q25 0 33.5 20t8.5 65
q0 46 -8.5 65.5t-33.5 19.5zM806 847q41 0 66 -20.5t32 -42.5t7 -45q0 -36 -28 -60.5t-60 -28.5q-178 -20 -284 -123q5 13 14.5 34.5t38.5 77t59 97.5t72.5 76.5t82.5 34.5zM237 758q45 0 89 -33t74.5 -80t54.5 -93.5t36 -79.5l12 -33q-96 122 -266 122q-42 0 -74 25.5
t-32 63.5q0 44 28 76t78 32zM536 1012q32 -31 40.5 -85t-2.5 -109.5t-26.5 -106t-29.5 -82.5l-15 -32q17 160 -104 275q-30 30 -35.5 68.5t20.5 69.5q31 31 71 33.5t81 -31.5z" />
    <glyph glyph-name="grave" unicode="`" 
d="M172 336q-12 0 -15 -1v-168q1 -1 15 -1q31 0 42 20.5t11 64.5q0 45 -11 65t-42 20zM432 275v-41h-68v-65h80v-41h-130v247h130v-42h-80v-58h68zM169 125q-39 0 -61 3v244q51 7 63 7q56 0 80 -31t24 -97t-24.5 -96t-81.5 -30zM488 375h67l32 -136l33 136h68q3 -59 10 -247
h-49q0 61 -6 177l-34 -139h-46l-34 139h-2q-3 -87 -3 -177h-48q4 147 12 247zM823 125q-50 0 -70.5 29.5t-20.5 96.5t20.5 97.5t70.5 30.5t71 -30.5t21 -97.5q0 -66 -21 -96t-71 -30zM823 336q-24 0 -32.5 -20t-8.5 -65t8.5 -65t32.5 -20q25 0 33.5 20t8.5 65
q0 46 -8.5 65.5t-33.5 19.5zM806 847q41 0 66 -20.5t32 -42.5t7 -45q0 -36 -28 -60.5t-60 -28.5q-178 -20 -284 -123q5 13 14.5 34.5t38.5 77t59 97.5t72.5 76.5t82.5 34.5zM237 758q45 0 89 -33t74.5 -80t54.5 -93.5t36 -79.5l12 -33q-96 122 -266 122q-42 0 -74 25.5
t-32 63.5q0 44 28 76t78 32zM536 1012q32 -31 40.5 -85t-2.5 -109.5t-26.5 -106t-29.5 -82.5l-15 -32q17 160 -104 275q-30 30 -35.5 68.5t20.5 69.5q31 31 71 33.5t81 -31.5z" />
    <glyph glyph-name="a" unicode="a" horiz-adv-x="1662" 
d="M1019 0l-5 207h-637l-138 -207h-459l986 1434h603l75 -1434h-425zM591 526h414l-13 505h-64z" />
    <glyph glyph-name="b" unicode="b" horiz-adv-x="1541" 
d="M1529 1137q0 -117 -74.5 -214t-220.5 -145l-10 -25q40 -20 69 -41t56.5 -53.5t42 -80.5t14.5 -109q0 -120 -56.5 -211.5t-158.5 -147t-234.5 -83t-292.5 -27.5h-833l464 1434h780q454 0 454 -297zM881 855q102 0 164.5 43t62.5 106q0 99 -147 99h-341l-81 -248h342z
M759 331q104 0 171.5 46t67.5 126q0 47 -35.5 77.5t-117.5 30.5h-386l-90 -280h390z" />
    <glyph glyph-name="c" unicode="c" horiz-adv-x="1670" 
d="M672 -48q-305 0 -475.5 157t-170.5 435q0 146 48.5 286t141 257t216.5 205.5t284 138.5t335 50q154 0 282 -47t210 -128t116.5 -194t7.5 -240h-411q-7 116 -86 177.5t-201 61.5q-111 0 -209.5 -44t-165 -115.5t-104.5 -162.5t-38 -185q0 -135 84 -208t218 -73
q265 0 410 233h415q-52 -140 -135 -248.5t-174 -174t-199.5 -108t-204 -58t-194.5 -15.5z" />
    <glyph glyph-name="d" unicode="d" horiz-adv-x="1612" 
d="M-166 0l463 1434h647q327 0 484 -141t157 -395q0 -206 -78 -376t-214.5 -283.5t-323 -176t-401.5 -62.5h-734zM379 360h264q107 0 201.5 37t162 101t106.5 152.5t39 187.5q0 125 -80 180t-244 55h-217z" />
    <glyph glyph-name="e" unicode="e" horiz-adv-x="1394" 
d="M1452 1091h-839l-74 -229h831l-90 -280h-831l-77 -239h838l-113 -343h-1266l464 1434h1270z" />
    <glyph glyph-name="f" unicode="f" horiz-adv-x="1387" 
d="M1440 1075h-832l-81 -247h787l-111 -340h-787l-158 -488h-427l464 1434h1261z" />
    <glyph glyph-name="g" unicode="g" horiz-adv-x="1694" 
d="M969 1111q-111 0 -209.5 -44t-165 -115.5t-104.5 -162.5t-38 -185q0 -135 84 -208t218 -73q48 0 97 9t110 31.5t115 72t88 119.5h-381l75 227h801l-253 -782h-230l51 177q-97 -104 -244 -164.5t-323 -60.5q-298 0 -466 153t-168 429q0 149 49 291t141 260t216 207
t284 139t335 50q193 0 342 -71.5t224 -195t62 -274.5h-430q-28 81 -103 126t-177 45z" />
    <glyph glyph-name="h" unicode="h" horiz-adv-x="1590" 
d="M1328 1434h428l-461 -1434h-428l167 522h-602l-167 -522h-431l463 1434h428l-177 -555h602z" />
    <glyph glyph-name="i" unicode="i" horiz-adv-x="556" 
d="M-169 0l464 1434h429l-463 -1434h-430z" />
    <glyph glyph-name="j" unicode="j" horiz-adv-x="1396" 
d="M478 -48q-121 0 -214.5 20.5t-164 67t-106.5 117.5t-35.5 175.5t42.5 237.5h425q-78 -253 136 -253q42 0 81.5 11.5t80 39t76 79.5t59.5 126l277 861h428l-276 -861q-45 -142 -106.5 -249t-134 -177.5t-164 -114.5t-189 -62t-215.5 -18z" />
    <glyph glyph-name="k" unicode="k" horiz-adv-x="1633" 
d="M1770 1434l-778 -649l455 -785h-426l-332 572h-35l-280 -220l-115 -352h-428l468 1434h428l-177 -545h51l674 545h495z" />
    <glyph glyph-name="l" unicode="l" horiz-adv-x="1361" 
d="M-169 0l468 1434h428l-352 -1076h811l-116 -358h-1239z" />
    <glyph glyph-name="m" unicode="m" horiz-adv-x="1795" 
d="M-166 0l463 1434h522l-12 -871h38l546 869h568l-459 -1432h-413l231 710h-43l-435 -710h-325v710h-41l-230 -710h-410z" />
    <glyph glyph-name="n" unicode="n" horiz-adv-x="1626" 
d="M-169 0l468 1434h476l276 -850h46l279 850h418l-466 -1434h-464l-291 841h-46l-276 -841h-420z" />
    <glyph glyph-name="o" unicode="o" horiz-adv-x="1708" 
d="M672 -48q-307 0 -477.5 156t-170.5 431q0 183 78 355t211 301.5t322.5 207.5t400.5 78q307 0 477.5 -155.5t170.5 -429.5q0 -184 -78 -356t-211 -302t-322.5 -208t-400.5 -78zM742 323q110 0 208.5 45.5t164.5 117.5t105 162t40 180q0 136 -82.5 209.5t-211.5 73.5
q-110 0 -208 -45.5t-164 -117.5t-104 -162t-39 -180q0 -136 81.5 -209.5t209.5 -73.5z" />
    <glyph glyph-name="p" unicode="p" horiz-adv-x="1534" 
d="M1014 1434q263 0 396 -102t133 -320q0 -160 -59 -291.5t-162 -217.5t-241 -133t-298 -47h-416l-106 -323h-430l468 1434h715zM804 676q130 0 216 71.5t86 186.5q0 73 -44.5 108t-138.5 35h-310l-132 -403z" />
    <glyph glyph-name="q" unicode="q" horiz-adv-x="1720" 
d="M1684 896q0 -188 -80.5 -363t-224.5 -309l113 -164q-128 -119 -318 -244l-148 196q-168 -60 -354 -60q-307 0 -477.5 156t-170.5 431q0 183 78 355t211 301.5t322.5 207.5t400.5 78q307 0 477.5 -155.5t170.5 -429.5zM451 606q0 -136 81.5 -209.5t209.5 -73.5
q110 0 208.5 45.5t164.5 117.5t105 162t40 180q0 136 -82.5 209.5t-211.5 73.5q-110 0 -208 -45.5t-164 -117.5t-104 -162t-39 -180z" />
    <glyph glyph-name="r" unicode="r" horiz-adv-x="1546" 
d="M1553 1026q0 -186 -100.5 -330t-264.5 -225l111 -471h-412l-87 387h-411l-124 -387h-431l463 1434h732q524 0 524 -408zM611 1077l-119 -372l351 2q67 0 129 26t104 80t42 124q0 77 -44 108.5t-140 31.5h-323z" />
    <glyph glyph-name="s" unicode="s" horiz-adv-x="1501" 
d="M544 -48q-112 0 -204.5 12t-169.5 37t-129 66t-81 96.5t-28 131.5t32 168h365q-19 -91 58 -135.5t219 -44.5q95 0 170.5 16t125 54.5t49.5 93.5q0 48 -40.5 78.5t-145.5 49.5l-115 21q-172 29 -258 64q-230 93 -230 299q0 164 98.5 283t269 179t393.5 60q215 0 363 -59
t202 -171.5t-15 -275.5h-352q14 76 -49.5 126.5t-207.5 50.5q-133 0 -213.5 -44t-80.5 -118q0 -44 35.5 -73t119.5 -45l87 -17q24 -5 73 -14t81.5 -16t81.5 -19t82.5 -25.5t74 -32.5t67.5 -44t51 -56.5t35.5 -73t11.5 -89.5q0 -115 -44 -206.5t-120 -152t-182 -100t-225 -57
t-255 -17.5z" />
    <glyph glyph-name="t" unicode="t" horiz-adv-x="1578" 
d="M1754 1434l-116 -359h-513l-350 -1075h-430l350 1075h-523l115 359h1467z" />
    <glyph glyph-name="u" unicode="u" horiz-adv-x="1588" 
d="M602 -48q-381 0 -527.5 175.5t-36.5 507.5l261 799h435l-275 -833q-47 -140 4 -216t201 -76q153 0 249.5 82t153.5 254l256 789h435l-275 -842q-112 -345 -320.5 -492.5t-560.5 -147.5z" />
    <glyph glyph-name="v" unicode="v" horiz-adv-x="1674" 
d="M319 0l-73 1434h420l29 -1031h51l681 1031h467l-984 -1434h-591z" />
    <glyph glyph-name="w" unicode="w" horiz-adv-x="2165" 
d="M89 0l170 1434h429l-137 -977h40l537 977h345l-84 -977h39l490 977h444l-754 -1434h-579l82 761h-38l-407 -761h-577z" />
    <glyph glyph-name="x" unicode="x" horiz-adv-x="1571" 
d="M-222 0l719 713l15 38l-270 683h434l165 -442h40l406 442h476l-696 -693l-16 -38l278 -703h-452l-157 432h-39l-420 -432h-483z" />
    <glyph glyph-name="y" unicode="y" horiz-adv-x="1607" 
d="M1818 1434l-900 -989l-143 -445h-429l151 471l-260 963h432l140 -564h38l496 564h475z" />
    <glyph glyph-name="z" unicode="z" horiz-adv-x="1431" 
d="M-183 0l113 352l983 692l14 35h-746l118 355h1319l-114 -352l-983 -693l-14 -34h747l-117 -355h-1320z" />
    <glyph glyph-name="braceleft" unicode="{" 
d="M172 336q-12 0 -15 -1v-168q1 -1 15 -1q31 0 42 20.5t11 64.5q0 45 -11 65t-42 20zM432 275v-41h-68v-65h80v-41h-130v247h130v-42h-80v-58h68zM169 125q-39 0 -61 3v244q51 7 63 7q56 0 80 -31t24 -97t-24.5 -96t-81.5 -30zM488 375h67l32 -136l33 136h68q3 -59 10 -247
h-49q0 61 -6 177l-34 -139h-46l-34 139h-2q-3 -87 -3 -177h-48q4 147 12 247zM823 125q-50 0 -70.5 29.5t-20.5 96.5t20.5 97.5t70.5 30.5t71 -30.5t21 -97.5q0 -66 -21 -96t-71 -30zM823 336q-24 0 -32.5 -20t-8.5 -65t8.5 -65t32.5 -20q25 0 33.5 20t8.5 65
q0 46 -8.5 65.5t-33.5 19.5zM806 847q41 0 66 -20.5t32 -42.5t7 -45q0 -36 -28 -60.5t-60 -28.5q-178 -20 -284 -123q5 13 14.5 34.5t38.5 77t59 97.5t72.5 76.5t82.5 34.5zM237 758q45 0 89 -33t74.5 -80t54.5 -93.5t36 -79.5l12 -33q-96 122 -266 122q-42 0 -74 25.5
t-32 63.5q0 44 28 76t78 32zM536 1012q32 -31 40.5 -85t-2.5 -109.5t-26.5 -106t-29.5 -82.5l-15 -32q17 160 -104 275q-30 30 -35.5 68.5t20.5 69.5q31 31 71 33.5t81 -31.5z" />
    <glyph glyph-name="bar" unicode="|" 
d="M172 336q-12 0 -15 -1v-168q1 -1 15 -1q31 0 42 20.5t11 64.5q0 45 -11 65t-42 20zM432 275v-41h-68v-65h80v-41h-130v247h130v-42h-80v-58h68zM169 125q-39 0 -61 3v244q51 7 63 7q56 0 80 -31t24 -97t-24.5 -96t-81.5 -30zM488 375h67l32 -136l33 136h68q3 -59 10 -247
h-49q0 61 -6 177l-34 -139h-46l-34 139h-2q-3 -87 -3 -177h-48q4 147 12 247zM823 125q-50 0 -70.5 29.5t-20.5 96.5t20.5 97.5t70.5 30.5t71 -30.5t21 -97.5q0 -66 -21 -96t-71 -30zM823 336q-24 0 -32.5 -20t-8.5 -65t8.5 -65t32.5 -20q25 0 33.5 20t8.5 65
q0 46 -8.5 65.5t-33.5 19.5zM806 847q41 0 66 -20.5t32 -42.5t7 -45q0 -36 -28 -60.5t-60 -28.5q-178 -20 -284 -123q5 13 14.5 34.5t38.5 77t59 97.5t72.5 76.5t82.5 34.5zM237 758q45 0 89 -33t74.5 -80t54.5 -93.5t36 -79.5l12 -33q-96 122 -266 122q-42 0 -74 25.5
t-32 63.5q0 44 28 76t78 32zM536 1012q32 -31 40.5 -85t-2.5 -109.5t-26.5 -106t-29.5 -82.5l-15 -32q17 160 -104 275q-30 30 -35.5 68.5t20.5 69.5q31 31 71 33.5t81 -31.5z" />
    <glyph glyph-name="braceright" unicode="}" 
d="M172 336q-12 0 -15 -1v-168q1 -1 15 -1q31 0 42 20.5t11 64.5q0 45 -11 65t-42 20zM432 275v-41h-68v-65h80v-41h-130v247h130v-42h-80v-58h68zM169 125q-39 0 -61 3v244q51 7 63 7q56 0 80 -31t24 -97t-24.5 -96t-81.5 -30zM488 375h67l32 -136l33 136h68q3 -59 10 -247
h-49q0 61 -6 177l-34 -139h-46l-34 139h-2q-3 -87 -3 -177h-48q4 147 12 247zM823 125q-50 0 -70.5 29.5t-20.5 96.5t20.5 97.5t70.5 30.5t71 -30.5t21 -97.5q0 -66 -21 -96t-71 -30zM823 336q-24 0 -32.5 -20t-8.5 -65t8.5 -65t32.5 -20q25 0 33.5 20t8.5 65
q0 46 -8.5 65.5t-33.5 19.5zM806 847q41 0 66 -20.5t32 -42.5t7 -45q0 -36 -28 -60.5t-60 -28.5q-178 -20 -284 -123q5 13 14.5 34.5t38.5 77t59 97.5t72.5 76.5t82.5 34.5zM237 758q45 0 89 -33t74.5 -80t54.5 -93.5t36 -79.5l12 -33q-96 122 -266 122q-42 0 -74 25.5
t-32 63.5q0 44 28 76t78 32zM536 1012q32 -31 40.5 -85t-2.5 -109.5t-26.5 -106t-29.5 -82.5l-15 -32q17 160 -104 275q-30 30 -35.5 68.5t20.5 69.5q31 31 71 33.5t81 -31.5z" />
    <glyph glyph-name="asciitilde" unicode="~" 
d="M172 336q-12 0 -15 -1v-168q1 -1 15 -1q31 0 42 20.5t11 64.5q0 45 -11 65t-42 20zM432 275v-41h-68v-65h80v-41h-130v247h130v-42h-80v-58h68zM169 125q-39 0 -61 3v244q51 7 63 7q56 0 80 -31t24 -97t-24.5 -96t-81.5 -30zM488 375h67l32 -136l33 136h68q3 -59 10 -247
h-49q0 61 -6 177l-34 -139h-46l-34 139h-2q-3 -87 -3 -177h-48q4 147 12 247zM823 125q-50 0 -70.5 29.5t-20.5 96.5t20.5 97.5t70.5 30.5t71 -30.5t21 -97.5q0 -66 -21 -96t-71 -30zM823 336q-24 0 -32.5 -20t-8.5 -65t8.5 -65t32.5 -20q25 0 33.5 20t8.5 65
q0 46 -8.5 65.5t-33.5 19.5zM806 847q41 0 66 -20.5t32 -42.5t7 -45q0 -36 -28 -60.5t-60 -28.5q-178 -20 -284 -123q5 13 14.5 34.5t38.5 77t59 97.5t72.5 76.5t82.5 34.5zM237 758q45 0 89 -33t74.5 -80t54.5 -93.5t36 -79.5l12 -33q-96 122 -266 122q-42 0 -74 25.5
t-32 63.5q0 44 28 76t78 32zM536 1012q32 -31 40.5 -85t-2.5 -109.5t-26.5 -106t-29.5 -82.5l-15 -32q17 160 -104 275q-30 30 -35.5 68.5t20.5 69.5q31 31 71 33.5t81 -31.5z" />
    </font>
</defs>
</svg>
