<?xml version="1.0" standalone="no"?>
<!DOCTYPE svg PUBLIC "-//W3C//DTD SVG 1.1//EN" "http://www.w3.org/Graphics/SVG/1.1/DTD/svg11.dtd" >
<svg xmlns="http://www.w3.org/2000/svg" xmlns:xlink="http://www.w3.org/1999/xlink" version="1.1">
<metadata>
Created by FontForge 20201107 at Sat Nov  9 11:58:29 2024
 By 
 2017 Connary Fagen
</metadata>
<defs>
<font id="FONTSPRINGDEMO-IntegralCFBoldItalic" horiz-adv-x="1020" >
  <font-face 
    font-family="FSP DEMO - Integral CF Bold"
    font-weight="700"
    font-style="italic"
    font-stretch="normal"
    units-per-em="2048"
    panose-1="0 0 8 0 0 0 0 0 0 0"
    ascent="1638"
    descent="-410"
    x-height="1434"
    cap-height="1434"
    bbox="-225 -410 2391 1481"
    underline-thickness="85"
    underline-position="-170"
    slope="-18"
    unicode-range="U+0020-007E"
  />
<missing-glyph 
d="M172 336q-12 0 -15 -1v-168q1 -1 15 -1q31 0 42 20.5t11 64.5q0 45 -11 65t-42 20zM432 275v-41h-68v-65h80v-41h-130v247h130v-42h-80v-58h68zM169 125q-39 0 -61 3v244q51 7 63 7q56 0 80 -31t24 -97t-24.5 -96t-81.5 -30zM488 375h67l32 -136l33 136h68q3 -59 10 -247
h-49q0 61 -6 177l-34 -139h-46l-34 139h-2q-3 -87 -3 -177h-48q4 147 12 247zM823 125q-50 0 -70.5 29.5t-20.5 96.5t20.5 97.5t70.5 30.5t71 -30.5t21 -97.5q0 -66 -21 -96t-71 -30zM823 336q-24 0 -32.5 -20t-8.5 -65t8.5 -65t32.5 -20q25 0 33.5 20t8.5 65
q0 46 -8.5 65.5t-33.5 19.5zM806 847q41 0 66 -20.5t32 -42.5t7 -45q0 -36 -28 -60.5t-60 -28.5q-178 -20 -284 -123q5 13 14.5 34.5t38.5 77t59 97.5t72.5 76.5t82.5 34.5zM237 758q45 0 89 -33t74.5 -80t54.5 -93.5t36 -79.5l12 -33q-96 122 -266 122q-42 0 -74 25.5
t-32 63.5q0 44 28 76t78 32zM536 1012q32 -31 40.5 -85t-2.5 -109.5t-26.5 -106t-29.5 -82.5l-15 -32q17 160 -104 275q-30 30 -35.5 68.5t20.5 69.5q31 31 71 33.5t81 -31.5z" />
    <glyph glyph-name=".notdef" 
d="M172 336q-12 0 -15 -1v-168q1 -1 15 -1q31 0 42 20.5t11 64.5q0 45 -11 65t-42 20zM432 275v-41h-68v-65h80v-41h-130v247h130v-42h-80v-58h68zM169 125q-39 0 -61 3v244q51 7 63 7q56 0 80 -31t24 -97t-24.5 -96t-81.5 -30zM488 375h67l32 -136l33 136h68q3 -59 10 -247
h-49q0 61 -6 177l-34 -139h-46l-34 139h-2q-3 -87 -3 -177h-48q4 147 12 247zM823 125q-50 0 -70.5 29.5t-20.5 96.5t20.5 97.5t70.5 30.5t71 -30.5t21 -97.5q0 -66 -21 -96t-71 -30zM823 336q-24 0 -32.5 -20t-8.5 -65t8.5 -65t32.5 -20q25 0 33.5 20t8.5 65
q0 46 -8.5 65.5t-33.5 19.5zM806 847q41 0 66 -20.5t32 -42.5t7 -45q0 -36 -28 -60.5t-60 -28.5q-178 -20 -284 -123q5 13 14.5 34.5t38.5 77t59 97.5t72.5 76.5t82.5 34.5zM237 758q45 0 89 -33t74.5 -80t54.5 -93.5t36 -79.5l12 -33q-96 122 -266 122q-42 0 -74 25.5
t-32 63.5q0 44 28 76t78 32zM536 1012q32 -31 40.5 -85t-2.5 -109.5t-26.5 -106t-29.5 -82.5l-15 -32q17 160 -104 275q-30 30 -35.5 68.5t20.5 69.5q31 31 71 33.5t81 -31.5z" />
    <glyph glyph-name=".null" horiz-adv-x="0" 
 />
    <glyph glyph-name="nonmarkingreturn" horiz-adv-x="682" 
 />
    <glyph glyph-name="space" unicode=" " horiz-adv-x="443" 
 />
    <glyph glyph-name="exclam" unicode="!" 
d="M172 336q-12 0 -15 -1v-168q1 -1 15 -1q31 0 42 20.5t11 64.5q0 45 -11 65t-42 20zM432 275v-41h-68v-65h80v-41h-130v247h130v-42h-80v-58h68zM169 125q-39 0 -61 3v244q51 7 63 7q56 0 80 -31t24 -97t-24.5 -96t-81.5 -30zM488 375h67l32 -136l33 136h68q3 -59 10 -247
h-49q0 61 -6 177l-34 -139h-46l-34 139h-2q-3 -87 -3 -177h-48q4 147 12 247zM823 125q-50 0 -70.5 29.5t-20.5 96.5t20.5 97.5t70.5 30.5t71 -30.5t21 -97.5q0 -66 -21 -96t-71 -30zM823 336q-24 0 -32.5 -20t-8.5 -65t8.5 -65t32.5 -20q25 0 33.5 20t8.5 65
q0 46 -8.5 65.5t-33.5 19.5zM806 847q41 0 66 -20.5t32 -42.5t7 -45q0 -36 -28 -60.5t-60 -28.5q-178 -20 -284 -123q5 13 14.5 34.5t38.5 77t59 97.5t72.5 76.5t82.5 34.5zM237 758q45 0 89 -33t74.5 -80t54.5 -93.5t36 -79.5l12 -33q-96 122 -266 122q-42 0 -74 25.5
t-32 63.5q0 44 28 76t78 32zM536 1012q32 -31 40.5 -85t-2.5 -109.5t-26.5 -106t-29.5 -82.5l-15 -32q17 160 -104 275q-30 30 -35.5 68.5t20.5 69.5q31 31 71 33.5t81 -31.5z" />
    <glyph glyph-name="quotedbl" unicode="&#x22;" 
d="M172 336q-12 0 -15 -1v-168q1 -1 15 -1q31 0 42 20.5t11 64.5q0 45 -11 65t-42 20zM432 275v-41h-68v-65h80v-41h-130v247h130v-42h-80v-58h68zM169 125q-39 0 -61 3v244q51 7 63 7q56 0 80 -31t24 -97t-24.5 -96t-81.5 -30zM488 375h67l32 -136l33 136h68q3 -59 10 -247
h-49q0 61 -6 177l-34 -139h-46l-34 139h-2q-3 -87 -3 -177h-48q4 147 12 247zM823 125q-50 0 -70.5 29.5t-20.5 96.5t20.5 97.5t70.5 30.5t71 -30.5t21 -97.5q0 -66 -21 -96t-71 -30zM823 336q-24 0 -32.5 -20t-8.5 -65t8.5 -65t32.5 -20q25 0 33.5 20t8.5 65
q0 46 -8.5 65.5t-33.5 19.5zM806 847q41 0 66 -20.5t32 -42.5t7 -45q0 -36 -28 -60.5t-60 -28.5q-178 -20 -284 -123q5 13 14.5 34.5t38.5 77t59 97.5t72.5 76.5t82.5 34.5zM237 758q45 0 89 -33t74.5 -80t54.5 -93.5t36 -79.5l12 -33q-96 122 -266 122q-42 0 -74 25.5
t-32 63.5q0 44 28 76t78 32zM536 1012q32 -31 40.5 -85t-2.5 -109.5t-26.5 -106t-29.5 -82.5l-15 -32q17 160 -104 275q-30 30 -35.5 68.5t20.5 69.5q31 31 71 33.5t81 -31.5z" />
    <glyph glyph-name="numbersign" unicode="#" 
d="M172 336q-12 0 -15 -1v-168q1 -1 15 -1q31 0 42 20.5t11 64.5q0 45 -11 65t-42 20zM432 275v-41h-68v-65h80v-41h-130v247h130v-42h-80v-58h68zM169 125q-39 0 -61 3v244q51 7 63 7q56 0 80 -31t24 -97t-24.5 -96t-81.5 -30zM488 375h67l32 -136l33 136h68q3 -59 10 -247
h-49q0 61 -6 177l-34 -139h-46l-34 139h-2q-3 -87 -3 -177h-48q4 147 12 247zM823 125q-50 0 -70.5 29.5t-20.5 96.5t20.5 97.5t70.5 30.5t71 -30.5t21 -97.5q0 -66 -21 -96t-71 -30zM823 336q-24 0 -32.5 -20t-8.5 -65t8.5 -65t32.5 -20q25 0 33.5 20t8.5 65
q0 46 -8.5 65.5t-33.5 19.5zM806 847q41 0 66 -20.5t32 -42.5t7 -45q0 -36 -28 -60.5t-60 -28.5q-178 -20 -284 -123q5 13 14.5 34.5t38.5 77t59 97.5t72.5 76.5t82.5 34.5zM237 758q45 0 89 -33t74.5 -80t54.5 -93.5t36 -79.5l12 -33q-96 122 -266 122q-42 0 -74 25.5
t-32 63.5q0 44 28 76t78 32zM536 1012q32 -31 40.5 -85t-2.5 -109.5t-26.5 -106t-29.5 -82.5l-15 -32q17 160 -104 275q-30 30 -35.5 68.5t20.5 69.5q31 31 71 33.5t81 -31.5z" />
    <glyph glyph-name="dollar" unicode="$" 
d="M172 336q-12 0 -15 -1v-168q1 -1 15 -1q31 0 42 20.5t11 64.5q0 45 -11 65t-42 20zM432 275v-41h-68v-65h80v-41h-130v247h130v-42h-80v-58h68zM169 125q-39 0 -61 3v244q51 7 63 7q56 0 80 -31t24 -97t-24.5 -96t-81.5 -30zM488 375h67l32 -136l33 136h68q3 -59 10 -247
h-49q0 61 -6 177l-34 -139h-46l-34 139h-2q-3 -87 -3 -177h-48q4 147 12 247zM823 125q-50 0 -70.5 29.5t-20.5 96.5t20.5 97.5t70.5 30.5t71 -30.5t21 -97.5q0 -66 -21 -96t-71 -30zM823 336q-24 0 -32.5 -20t-8.5 -65t8.5 -65t32.5 -20q25 0 33.5 20t8.5 65
q0 46 -8.5 65.5t-33.5 19.5zM806 847q41 0 66 -20.5t32 -42.5t7 -45q0 -36 -28 -60.5t-60 -28.5q-178 -20 -284 -123q5 13 14.5 34.5t38.5 77t59 97.5t72.5 76.5t82.5 34.5zM237 758q45 0 89 -33t74.5 -80t54.5 -93.5t36 -79.5l12 -33q-96 122 -266 122q-42 0 -74 25.5
t-32 63.5q0 44 28 76t78 32zM536 1012q32 -31 40.5 -85t-2.5 -109.5t-26.5 -106t-29.5 -82.5l-15 -32q17 160 -104 275q-30 30 -35.5 68.5t20.5 69.5q31 31 71 33.5t81 -31.5z" />
    <glyph glyph-name="percent" unicode="%" 
d="M172 336q-12 0 -15 -1v-168q1 -1 15 -1q31 0 42 20.5t11 64.5q0 45 -11 65t-42 20zM432 275v-41h-68v-65h80v-41h-130v247h130v-42h-80v-58h68zM169 125q-39 0 -61 3v244q51 7 63 7q56 0 80 -31t24 -97t-24.5 -96t-81.5 -30zM488 375h67l32 -136l33 136h68q3 -59 10 -247
h-49q0 61 -6 177l-34 -139h-46l-34 139h-2q-3 -87 -3 -177h-48q4 147 12 247zM823 125q-50 0 -70.5 29.5t-20.5 96.5t20.5 97.5t70.5 30.5t71 -30.5t21 -97.5q0 -66 -21 -96t-71 -30zM823 336q-24 0 -32.5 -20t-8.5 -65t8.5 -65t32.5 -20q25 0 33.5 20t8.5 65
q0 46 -8.5 65.5t-33.5 19.5zM806 847q41 0 66 -20.5t32 -42.5t7 -45q0 -36 -28 -60.5t-60 -28.5q-178 -20 -284 -123q5 13 14.5 34.5t38.5 77t59 97.5t72.5 76.5t82.5 34.5zM237 758q45 0 89 -33t74.5 -80t54.5 -93.5t36 -79.5l12 -33q-96 122 -266 122q-42 0 -74 25.5
t-32 63.5q0 44 28 76t78 32zM536 1012q32 -31 40.5 -85t-2.5 -109.5t-26.5 -106t-29.5 -82.5l-15 -32q17 160 -104 275q-30 30 -35.5 68.5t20.5 69.5q31 31 71 33.5t81 -31.5z" />
    <glyph glyph-name="ampersand" unicode="&#x26;" 
d="M172 336q-12 0 -15 -1v-168q1 -1 15 -1q31 0 42 20.5t11 64.5q0 45 -11 65t-42 20zM432 275v-41h-68v-65h80v-41h-130v247h130v-42h-80v-58h68zM169 125q-39 0 -61 3v244q51 7 63 7q56 0 80 -31t24 -97t-24.5 -96t-81.5 -30zM488 375h67l32 -136l33 136h68q3 -59 10 -247
h-49q0 61 -6 177l-34 -139h-46l-34 139h-2q-3 -87 -3 -177h-48q4 147 12 247zM823 125q-50 0 -70.5 29.5t-20.5 96.5t20.5 97.5t70.5 30.5t71 -30.5t21 -97.5q0 -66 -21 -96t-71 -30zM823 336q-24 0 -32.5 -20t-8.5 -65t8.5 -65t32.5 -20q25 0 33.5 20t8.5 65
q0 46 -8.5 65.5t-33.5 19.5zM806 847q41 0 66 -20.5t32 -42.5t7 -45q0 -36 -28 -60.5t-60 -28.5q-178 -20 -284 -123q5 13 14.5 34.5t38.5 77t59 97.5t72.5 76.5t82.5 34.5zM237 758q45 0 89 -33t74.5 -80t54.5 -93.5t36 -79.5l12 -33q-96 122 -266 122q-42 0 -74 25.5
t-32 63.5q0 44 28 76t78 32zM536 1012q32 -31 40.5 -85t-2.5 -109.5t-26.5 -106t-29.5 -82.5l-15 -32q17 160 -104 275q-30 30 -35.5 68.5t20.5 69.5q31 31 71 33.5t81 -31.5z" />
    <glyph glyph-name="quotesingle" unicode="'" 
d="M172 336q-12 0 -15 -1v-168q1 -1 15 -1q31 0 42 20.5t11 64.5q0 45 -11 65t-42 20zM432 275v-41h-68v-65h80v-41h-130v247h130v-42h-80v-58h68zM169 125q-39 0 -61 3v244q51 7 63 7q56 0 80 -31t24 -97t-24.5 -96t-81.5 -30zM488 375h67l32 -136l33 136h68q3 -59 10 -247
h-49q0 61 -6 177l-34 -139h-46l-34 139h-2q-3 -87 -3 -177h-48q4 147 12 247zM823 125q-50 0 -70.5 29.5t-20.5 96.5t20.5 97.5t70.5 30.5t71 -30.5t21 -97.5q0 -66 -21 -96t-71 -30zM823 336q-24 0 -32.5 -20t-8.5 -65t8.5 -65t32.5 -20q25 0 33.5 20t8.5 65
q0 46 -8.5 65.5t-33.5 19.5zM806 847q41 0 66 -20.5t32 -42.5t7 -45q0 -36 -28 -60.5t-60 -28.5q-178 -20 -284 -123q5 13 14.5 34.5t38.5 77t59 97.5t72.5 76.5t82.5 34.5zM237 758q45 0 89 -33t74.5 -80t54.5 -93.5t36 -79.5l12 -33q-96 122 -266 122q-42 0 -74 25.5
t-32 63.5q0 44 28 76t78 32zM536 1012q32 -31 40.5 -85t-2.5 -109.5t-26.5 -106t-29.5 -82.5l-15 -32q17 160 -104 275q-30 30 -35.5 68.5t20.5 69.5q31 31 71 33.5t81 -31.5z" />
    <glyph glyph-name="parenleft" unicode="(" 
d="M172 336q-12 0 -15 -1v-168q1 -1 15 -1q31 0 42 20.5t11 64.5q0 45 -11 65t-42 20zM432 275v-41h-68v-65h80v-41h-130v247h130v-42h-80v-58h68zM169 125q-39 0 -61 3v244q51 7 63 7q56 0 80 -31t24 -97t-24.5 -96t-81.5 -30zM488 375h67l32 -136l33 136h68q3 -59 10 -247
h-49q0 61 -6 177l-34 -139h-46l-34 139h-2q-3 -87 -3 -177h-48q4 147 12 247zM823 125q-50 0 -70.5 29.5t-20.5 96.5t20.5 97.5t70.5 30.5t71 -30.5t21 -97.5q0 -66 -21 -96t-71 -30zM823 336q-24 0 -32.5 -20t-8.5 -65t8.5 -65t32.5 -20q25 0 33.5 20t8.5 65
q0 46 -8.5 65.5t-33.5 19.5zM806 847q41 0 66 -20.5t32 -42.5t7 -45q0 -36 -28 -60.5t-60 -28.5q-178 -20 -284 -123q5 13 14.5 34.5t38.5 77t59 97.5t72.5 76.5t82.5 34.5zM237 758q45 0 89 -33t74.5 -80t54.5 -93.5t36 -79.5l12 -33q-96 122 -266 122q-42 0 -74 25.5
t-32 63.5q0 44 28 76t78 32zM536 1012q32 -31 40.5 -85t-2.5 -109.5t-26.5 -106t-29.5 -82.5l-15 -32q17 160 -104 275q-30 30 -35.5 68.5t20.5 69.5q31 31 71 33.5t81 -31.5z" />
    <glyph glyph-name="parenright" unicode=")" 
d="M172 336q-12 0 -15 -1v-168q1 -1 15 -1q31 0 42 20.5t11 64.5q0 45 -11 65t-42 20zM432 275v-41h-68v-65h80v-41h-130v247h130v-42h-80v-58h68zM169 125q-39 0 -61 3v244q51 7 63 7q56 0 80 -31t24 -97t-24.5 -96t-81.5 -30zM488 375h67l32 -136l33 136h68q3 -59 10 -247
h-49q0 61 -6 177l-34 -139h-46l-34 139h-2q-3 -87 -3 -177h-48q4 147 12 247zM823 125q-50 0 -70.5 29.5t-20.5 96.5t20.5 97.5t70.5 30.5t71 -30.5t21 -97.5q0 -66 -21 -96t-71 -30zM823 336q-24 0 -32.5 -20t-8.5 -65t8.5 -65t32.5 -20q25 0 33.5 20t8.5 65
q0 46 -8.5 65.5t-33.5 19.5zM806 847q41 0 66 -20.5t32 -42.5t7 -45q0 -36 -28 -60.5t-60 -28.5q-178 -20 -284 -123q5 13 14.5 34.5t38.5 77t59 97.5t72.5 76.5t82.5 34.5zM237 758q45 0 89 -33t74.5 -80t54.5 -93.5t36 -79.5l12 -33q-96 122 -266 122q-42 0 -74 25.5
t-32 63.5q0 44 28 76t78 32zM536 1012q32 -31 40.5 -85t-2.5 -109.5t-26.5 -106t-29.5 -82.5l-15 -32q17 160 -104 275q-30 30 -35.5 68.5t20.5 69.5q31 31 71 33.5t81 -31.5z" />
    <glyph glyph-name="asterisk" unicode="*" 
d="M172 336q-12 0 -15 -1v-168q1 -1 15 -1q31 0 42 20.5t11 64.5q0 45 -11 65t-42 20zM432 275v-41h-68v-65h80v-41h-130v247h130v-42h-80v-58h68zM169 125q-39 0 -61 3v244q51 7 63 7q56 0 80 -31t24 -97t-24.5 -96t-81.5 -30zM488 375h67l32 -136l33 136h68q3 -59 10 -247
h-49q0 61 -6 177l-34 -139h-46l-34 139h-2q-3 -87 -3 -177h-48q4 147 12 247zM823 125q-50 0 -70.5 29.5t-20.5 96.5t20.5 97.5t70.5 30.5t71 -30.5t21 -97.5q0 -66 -21 -96t-71 -30zM823 336q-24 0 -32.5 -20t-8.5 -65t8.5 -65t32.5 -20q25 0 33.5 20t8.5 65
q0 46 -8.5 65.5t-33.5 19.5zM806 847q41 0 66 -20.5t32 -42.5t7 -45q0 -36 -28 -60.5t-60 -28.5q-178 -20 -284 -123q5 13 14.5 34.5t38.5 77t59 97.5t72.5 76.5t82.5 34.5zM237 758q45 0 89 -33t74.5 -80t54.5 -93.5t36 -79.5l12 -33q-96 122 -266 122q-42 0 -74 25.5
t-32 63.5q0 44 28 76t78 32zM536 1012q32 -31 40.5 -85t-2.5 -109.5t-26.5 -106t-29.5 -82.5l-15 -32q17 160 -104 275q-30 30 -35.5 68.5t20.5 69.5q31 31 71 33.5t81 -31.5z" />
    <glyph glyph-name="plus" unicode="+" 
d="M172 336q-12 0 -15 -1v-168q1 -1 15 -1q31 0 42 20.5t11 64.5q0 45 -11 65t-42 20zM432 275v-41h-68v-65h80v-41h-130v247h130v-42h-80v-58h68zM169 125q-39 0 -61 3v244q51 7 63 7q56 0 80 -31t24 -97t-24.5 -96t-81.5 -30zM488 375h67l32 -136l33 136h68q3 -59 10 -247
h-49q0 61 -6 177l-34 -139h-46l-34 139h-2q-3 -87 -3 -177h-48q4 147 12 247zM823 125q-50 0 -70.5 29.5t-20.5 96.5t20.5 97.5t70.5 30.5t71 -30.5t21 -97.5q0 -66 -21 -96t-71 -30zM823 336q-24 0 -32.5 -20t-8.5 -65t8.5 -65t32.5 -20q25 0 33.5 20t8.5 65
q0 46 -8.5 65.5t-33.5 19.5zM806 847q41 0 66 -20.5t32 -42.5t7 -45q0 -36 -28 -60.5t-60 -28.5q-178 -20 -284 -123q5 13 14.5 34.5t38.5 77t59 97.5t72.5 76.5t82.5 34.5zM237 758q45 0 89 -33t74.5 -80t54.5 -93.5t36 -79.5l12 -33q-96 122 -266 122q-42 0 -74 25.5
t-32 63.5q0 44 28 76t78 32zM536 1012q32 -31 40.5 -85t-2.5 -109.5t-26.5 -106t-29.5 -82.5l-15 -32q17 160 -104 275q-30 30 -35.5 68.5t20.5 69.5q31 31 71 33.5t81 -31.5z" />
    <glyph glyph-name="comma" unicode="," horiz-adv-x="728" 
d="M541 399l-2 -5q0 1 1 2.5t1 2.5zM-147 0l127 394h559q-98 -289 -200 -494t-191 -310h-254q101 222 150 410h-191z" />
    <glyph glyph-name="hyphen" unicode="-" 
d="M172 336q-12 0 -15 -1v-168q1 -1 15 -1q31 0 42 20.5t11 64.5q0 45 -11 65t-42 20zM432 275v-41h-68v-65h80v-41h-130v247h130v-42h-80v-58h68zM169 125q-39 0 -61 3v244q51 7 63 7q56 0 80 -31t24 -97t-24.5 -96t-81.5 -30zM488 375h67l32 -136l33 136h68q3 -59 10 -247
h-49q0 61 -6 177l-34 -139h-46l-34 139h-2q-3 -87 -3 -177h-48q4 147 12 247zM823 125q-50 0 -70.5 29.5t-20.5 96.5t20.5 97.5t70.5 30.5t71 -30.5t21 -97.5q0 -66 -21 -96t-71 -30zM823 336q-24 0 -32.5 -20t-8.5 -65t8.5 -65t32.5 -20q25 0 33.5 20t8.5 65
q0 46 -8.5 65.5t-33.5 19.5zM806 847q41 0 66 -20.5t32 -42.5t7 -45q0 -36 -28 -60.5t-60 -28.5q-178 -20 -284 -123q5 13 14.5 34.5t38.5 77t59 97.5t72.5 76.5t82.5 34.5zM237 758q45 0 89 -33t74.5 -80t54.5 -93.5t36 -79.5l12 -33q-96 122 -266 122q-42 0 -74 25.5
t-32 63.5q0 44 28 76t78 32zM536 1012q32 -31 40.5 -85t-2.5 -109.5t-26.5 -106t-29.5 -82.5l-15 -32q17 160 -104 275q-30 30 -35.5 68.5t20.5 69.5q31 31 71 33.5t81 -31.5z" />
    <glyph glyph-name="period" unicode="." horiz-adv-x="585" 
d="M96 -27q-88 0 -143 55.5t-55 142.5q0 112 80 189t189 77q88 0 143 -55.5t55 -142.5q0 -112 -80 -189t-189 -77z" />
    <glyph glyph-name="slash" unicode="/" 
d="M172 336q-12 0 -15 -1v-168q1 -1 15 -1q31 0 42 20.5t11 64.5q0 45 -11 65t-42 20zM432 275v-41h-68v-65h80v-41h-130v247h130v-42h-80v-58h68zM169 125q-39 0 -61 3v244q51 7 63 7q56 0 80 -31t24 -97t-24.5 -96t-81.5 -30zM488 375h67l32 -136l33 136h68q3 -59 10 -247
h-49q0 61 -6 177l-34 -139h-46l-34 139h-2q-3 -87 -3 -177h-48q4 147 12 247zM823 125q-50 0 -70.5 29.5t-20.5 96.5t20.5 97.5t70.5 30.5t71 -30.5t21 -97.5q0 -66 -21 -96t-71 -30zM823 336q-24 0 -32.5 -20t-8.5 -65t8.5 -65t32.5 -20q25 0 33.5 20t8.5 65
q0 46 -8.5 65.5t-33.5 19.5zM806 847q41 0 66 -20.5t32 -42.5t7 -45q0 -36 -28 -60.5t-60 -28.5q-178 -20 -284 -123q5 13 14.5 34.5t38.5 77t59 97.5t72.5 76.5t82.5 34.5zM237 758q45 0 89 -33t74.5 -80t54.5 -93.5t36 -79.5l12 -33q-96 122 -266 122q-42 0 -74 25.5
t-32 63.5q0 44 28 76t78 32zM536 1012q32 -31 40.5 -85t-2.5 -109.5t-26.5 -106t-29.5 -82.5l-15 -32q17 160 -104 275q-30 30 -35.5 68.5t20.5 69.5q31 31 71 33.5t81 -31.5z" />
    <glyph glyph-name="zero" unicode="0" horiz-adv-x="1527" 
d="M563 -38q-364 0 -498.5 210t-8.5 594q112 346 347 525.5t570 179.5q364 0 498 -209.5t9 -594.5q-110 -346 -345.5 -525.5t-571.5 -179.5zM638 343q147 0 255.5 107.5t168.5 308.5q49 163 6.5 247.5t-170.5 84.5q-147 0 -255.5 -107.5t-168.5 -309.5q-50 -163 -7.5 -247
t171.5 -84z" />
    <glyph glyph-name="one" unicode="1" horiz-adv-x="1297" 
d="M1169 1434l-350 -1076h302l-116 -358h-1169l116 358h394l197 606q-140 -83 -393 -70l126 386q203 0 420 154h473z" />
    <glyph glyph-name="two" unicode="2" horiz-adv-x="1397" 
d="M1454 1118q0 -107 -53 -200t-134 -156t-192 -123.5t-212 -101t-210.5 -90t-171.5 -89.5h748l-116 -358h-1302l68 215q30 95 108.5 178.5t178.5 143.5t214 113t221.5 96t195.5 83.5t141.5 85.5t53.5 92q0 43 -37.5 67.5t-111.5 24.5q-212 0 -266 -152h-439
q54 247 256.5 385.5t511.5 138.5q266 0 407 -90.5t141 -262.5z" />
    <glyph glyph-name="three" unicode="3" horiz-adv-x="1464" 
d="M497 -38q-159 0 -276 29.5t-192.5 92.5t-91 161t28.5 235h406q-7 -44 7 -74t46 -45t68.5 -20.5t86.5 -5.5q132 0 214 39t82 107q0 21 -7 37.5t-28 35.5t-69.5 29.5t-121.5 10.5h-87l84 266h80q132 0 213 36.5t81 105.5q0 97 -183 97q-120 0 -188 -36.5t-99 -113.5h-401
q24 113 76 202t122.5 148.5t162 98.5t190.5 56t212 17q259 0 403.5 -88.5t144.5 -239.5q0 -130 -87 -232.5t-246 -156.5l-8 -27q84 -31 140 -102.5t56 -170.5q0 -100 -46.5 -182.5t-125 -139t-184 -95.5t-222 -57t-241.5 -18z" />
    <glyph glyph-name="four" unicode="4" 
d="M172 336q-12 0 -15 -1v-168q1 -1 15 -1q31 0 42 20.5t11 64.5q0 45 -11 65t-42 20zM432 275v-41h-68v-65h80v-41h-130v247h130v-42h-80v-58h68zM169 125q-39 0 -61 3v244q51 7 63 7q56 0 80 -31t24 -97t-24.5 -96t-81.5 -30zM488 375h67l32 -136l33 136h68q3 -59 10 -247
h-49q0 61 -6 177l-34 -139h-46l-34 139h-2q-3 -87 -3 -177h-48q4 147 12 247zM823 125q-50 0 -70.5 29.5t-20.5 96.5t20.5 97.5t70.5 30.5t71 -30.5t21 -97.5q0 -66 -21 -96t-71 -30zM823 336q-24 0 -32.5 -20t-8.5 -65t8.5 -65t32.5 -20q25 0 33.5 20t8.5 65
q0 46 -8.5 65.5t-33.5 19.5zM806 847q41 0 66 -20.5t32 -42.5t7 -45q0 -36 -28 -60.5t-60 -28.5q-178 -20 -284 -123q5 13 14.5 34.5t38.5 77t59 97.5t72.5 76.5t82.5 34.5zM237 758q45 0 89 -33t74.5 -80t54.5 -93.5t36 -79.5l12 -33q-96 122 -266 122q-42 0 -74 25.5
t-32 63.5q0 44 28 76t78 32zM536 1012q32 -31 40.5 -85t-2.5 -109.5t-26.5 -106t-29.5 -82.5l-15 -32q17 160 -104 275q-30 30 -35.5 68.5t20.5 69.5q31 31 71 33.5t81 -31.5z" />
    <glyph glyph-name="five" unicode="5" horiz-adv-x="1409" 
d="M474 -38q-311 0 -448.5 136.5t-56.5 377.5h406q-6 -80 46 -112.5t139 -32.5q146 0 226.5 63t80.5 147q0 135 -189 135q-173 0 -274 -96h-402l283 854h1154l-116 -357h-753l-67 -188q5 2 42.5 15t59.5 19t63 15.5t87.5 13.5t99.5 4q198 0 319 -95t121 -272
q0 -278 -224 -452.5t-597 -174.5z" />
    <glyph glyph-name="six" unicode="6" horiz-adv-x="1493" 
d="M1471 988h-374q14 67 -35.5 102.5t-134.5 35.5q-62 0 -114 -11.5t-107.5 -41.5t-101 -90.5t-75.5 -149.5q137 75 360 75q144 0 246 -33t163.5 -113t61.5 -204q0 -139 -60.5 -252.5t-166.5 -188t-247.5 -115t-305.5 -40.5q-141 0 -248 39t-172 109t-97 161.5t-32 202.5
q0 126 27.5 247.5t80.5 233t136.5 205.5t189.5 163.5t246 108.5t299 39q178 0 304 -62.5t168 -169.5t-11 -251zM925 514q0 57 -48 87t-129 30q-127 0 -204.5 -63.5t-77.5 -149.5q0 -53 45 -85.5t132 -32.5q121 0 201.5 63t80.5 151z" />
    <glyph glyph-name="seven" unicode="7" horiz-adv-x="1322" 
d="M278 1434h1246l-123 -371l-1022 -1063h-507l1038 1063h-755z" />
    <glyph glyph-name="eight" unicode="8" horiz-adv-x="1464" 
d="M543 -38q-158 0 -276.5 30t-188 83t-103 120t-33.5 148q0 147 97.5 262t279.5 178l10 23q-88 77 -88 211q0 201 181.5 327.5t485.5 126.5q256 0 384 -87t128 -235q0 -118 -72 -203.5t-184 -136.5l-9 -22q78 -52 125.5 -133.5t47.5 -182.5q0 -122 -61.5 -220t-169 -160.5
t-249 -95.5t-305.5 -33zM783 908q90 0 149.5 37.5t59.5 102.5q0 106 -144 106q-89 0 -147 -40t-58 -102q0 -51 36 -77.5t104 -26.5zM591 311q130 0 207.5 53.5t77.5 132.5q0 48 -30.5 79t-71 41.5t-90.5 10.5q-131 0 -207 -53.5t-76 -135.5q0 -128 190 -128z" />
    <glyph glyph-name="nine" unicode="9" horiz-adv-x="1493" 
d="M913 1471q141 0 248.5 -39t172.5 -109t97 -161.5t32 -202.5q0 -152 -38.5 -295.5t-119 -271.5t-194.5 -223.5t-276 -151t-352 -55.5q-178 0 -304 62.5t-168 169.5t11 251h374q-14 -67 36 -102.5t135 -35.5q62 0 114 12t107 42t100.5 90.5t75.5 149.5q-137 -75 -360 -75
q-144 0 -246 33t-163.5 113t-61.5 204q0 111 39 207t110 166.5t168 121t214.5 75.5t248.5 25zM568 920q0 -57 48.5 -87.5t129.5 -30.5q127 0 204 63.5t77 149.5q0 53 -45 85.5t-132 32.5q-121 0 -201.5 -62.5t-80.5 -150.5z" />
    <glyph glyph-name="colon" unicode=":" horiz-adv-x="587" 
d="M377 840q-88 0 -143 55.5t-55 142.5q0 112 80.5 189t189.5 77q88 0 143 -55.5t55 -142.5q0 -112 -80.5 -189t-189.5 -77zM142 113q-88 0 -143 55.5t-55 142.5q0 112 80 189t189 77q88 0 143 -55.5t55 -142.5q0 -112 -80 -189t-189 -77z" />
    <glyph glyph-name="semicolon" unicode=";" horiz-adv-x="674" 
d="M449 1304q88 0 143 -55.5t55 -142.5q0 -112 -80.5 -189t-189.5 -77q-88 0 -143 55.5t-55 142.5q0 112 80.5 189t189.5 77zM567 548q0 1 0.5 2.5t0.5 2.5zM-119 154l126 394h560q-98 -289 -200 -494t-191 -310h-255q103 227 151 410h-191z" />
    <glyph glyph-name="less" unicode="&#x3c;" 
d="M172 336q-12 0 -15 -1v-168q1 -1 15 -1q31 0 42 20.5t11 64.5q0 45 -11 65t-42 20zM432 275v-41h-68v-65h80v-41h-130v247h130v-42h-80v-58h68zM169 125q-39 0 -61 3v244q51 7 63 7q56 0 80 -31t24 -97t-24.5 -96t-81.5 -30zM488 375h67l32 -136l33 136h68q3 -59 10 -247
h-49q0 61 -6 177l-34 -139h-46l-34 139h-2q-3 -87 -3 -177h-48q4 147 12 247zM823 125q-50 0 -70.5 29.5t-20.5 96.5t20.5 97.5t70.5 30.5t71 -30.5t21 -97.5q0 -66 -21 -96t-71 -30zM823 336q-24 0 -32.5 -20t-8.5 -65t8.5 -65t32.5 -20q25 0 33.5 20t8.5 65
q0 46 -8.5 65.5t-33.5 19.5zM806 847q41 0 66 -20.5t32 -42.5t7 -45q0 -36 -28 -60.5t-60 -28.5q-178 -20 -284 -123q5 13 14.5 34.5t38.5 77t59 97.5t72.5 76.5t82.5 34.5zM237 758q45 0 89 -33t74.5 -80t54.5 -93.5t36 -79.5l12 -33q-96 122 -266 122q-42 0 -74 25.5
t-32 63.5q0 44 28 76t78 32zM536 1012q32 -31 40.5 -85t-2.5 -109.5t-26.5 -106t-29.5 -82.5l-15 -32q17 160 -104 275q-30 30 -35.5 68.5t20.5 69.5q31 31 71 33.5t81 -31.5z" />
    <glyph glyph-name="equal" unicode="=" 
d="M172 336q-12 0 -15 -1v-168q1 -1 15 -1q31 0 42 20.5t11 64.5q0 45 -11 65t-42 20zM432 275v-41h-68v-65h80v-41h-130v247h130v-42h-80v-58h68zM169 125q-39 0 -61 3v244q51 7 63 7q56 0 80 -31t24 -97t-24.5 -96t-81.5 -30zM488 375h67l32 -136l33 136h68q3 -59 10 -247
h-49q0 61 -6 177l-34 -139h-46l-34 139h-2q-3 -87 -3 -177h-48q4 147 12 247zM823 125q-50 0 -70.5 29.5t-20.5 96.5t20.5 97.5t70.5 30.5t71 -30.5t21 -97.5q0 -66 -21 -96t-71 -30zM823 336q-24 0 -32.5 -20t-8.5 -65t8.5 -65t32.5 -20q25 0 33.5 20t8.5 65
q0 46 -8.5 65.5t-33.5 19.5zM806 847q41 0 66 -20.5t32 -42.5t7 -45q0 -36 -28 -60.5t-60 -28.5q-178 -20 -284 -123q5 13 14.5 34.5t38.5 77t59 97.5t72.5 76.5t82.5 34.5zM237 758q45 0 89 -33t74.5 -80t54.5 -93.5t36 -79.5l12 -33q-96 122 -266 122q-42 0 -74 25.5
t-32 63.5q0 44 28 76t78 32zM536 1012q32 -31 40.5 -85t-2.5 -109.5t-26.5 -106t-29.5 -82.5l-15 -32q17 160 -104 275q-30 30 -35.5 68.5t20.5 69.5q31 31 71 33.5t81 -31.5z" />
    <glyph glyph-name="greater" unicode="&#x3e;" 
d="M172 336q-12 0 -15 -1v-168q1 -1 15 -1q31 0 42 20.5t11 64.5q0 45 -11 65t-42 20zM432 275v-41h-68v-65h80v-41h-130v247h130v-42h-80v-58h68zM169 125q-39 0 -61 3v244q51 7 63 7q56 0 80 -31t24 -97t-24.5 -96t-81.5 -30zM488 375h67l32 -136l33 136h68q3 -59 10 -247
h-49q0 61 -6 177l-34 -139h-46l-34 139h-2q-3 -87 -3 -177h-48q4 147 12 247zM823 125q-50 0 -70.5 29.5t-20.5 96.5t20.5 97.5t70.5 30.5t71 -30.5t21 -97.5q0 -66 -21 -96t-71 -30zM823 336q-24 0 -32.5 -20t-8.5 -65t8.5 -65t32.5 -20q25 0 33.5 20t8.5 65
q0 46 -8.5 65.5t-33.5 19.5zM806 847q41 0 66 -20.5t32 -42.5t7 -45q0 -36 -28 -60.5t-60 -28.5q-178 -20 -284 -123q5 13 14.5 34.5t38.5 77t59 97.5t72.5 76.5t82.5 34.5zM237 758q45 0 89 -33t74.5 -80t54.5 -93.5t36 -79.5l12 -33q-96 122 -266 122q-42 0 -74 25.5
t-32 63.5q0 44 28 76t78 32zM536 1012q32 -31 40.5 -85t-2.5 -109.5t-26.5 -106t-29.5 -82.5l-15 -32q17 160 -104 275q-30 30 -35.5 68.5t20.5 69.5q31 31 71 33.5t81 -31.5z" />
    <glyph glyph-name="question" unicode="?" horiz-adv-x="1426" 
d="M418 526q14 71 47.5 128t77.5 93.5t96.5 66t104.5 47t100.5 35t85.5 32.5t59.5 37t22.5 50q0 37 -51 60.5t-137 23.5q-226 0 -305 -186h-425q30 151 104.5 261t184.5 173.5t240 93.5t287 30q176 0 309 -39t212 -122t79 -202q0 -81 -32 -148.5t-84 -113t-115.5 -82.5
t-128.5 -65.5t-120.5 -54t-94.5 -55.5t-48 -63h-469zM538 -27q-88 0 -143 55.5t-55 142.5q0 112 80 189t189 77q88 0 143 -55.5t55 -142.5q0 -112 -80 -189t-189 -77z" />
    <glyph glyph-name="at" unicode="@" 
d="M172 336q-12 0 -15 -1v-168q1 -1 15 -1q31 0 42 20.5t11 64.5q0 45 -11 65t-42 20zM432 275v-41h-68v-65h80v-41h-130v247h130v-42h-80v-58h68zM169 125q-39 0 -61 3v244q51 7 63 7q56 0 80 -31t24 -97t-24.5 -96t-81.5 -30zM488 375h67l32 -136l33 136h68q3 -59 10 -247
h-49q0 61 -6 177l-34 -139h-46l-34 139h-2q-3 -87 -3 -177h-48q4 147 12 247zM823 125q-50 0 -70.5 29.5t-20.5 96.5t20.5 97.5t70.5 30.5t71 -30.5t21 -97.5q0 -66 -21 -96t-71 -30zM823 336q-24 0 -32.5 -20t-8.5 -65t8.5 -65t32.5 -20q25 0 33.5 20t8.5 65
q0 46 -8.5 65.5t-33.5 19.5zM806 847q41 0 66 -20.5t32 -42.5t7 -45q0 -36 -28 -60.5t-60 -28.5q-178 -20 -284 -123q5 13 14.5 34.5t38.5 77t59 97.5t72.5 76.5t82.5 34.5zM237 758q45 0 89 -33t74.5 -80t54.5 -93.5t36 -79.5l12 -33q-96 122 -266 122q-42 0 -74 25.5
t-32 63.5q0 44 28 76t78 32zM536 1012q32 -31 40.5 -85t-2.5 -109.5t-26.5 -106t-29.5 -82.5l-15 -32q17 160 -104 275q-30 30 -35.5 68.5t20.5 69.5q31 31 71 33.5t81 -31.5z" />
    <glyph glyph-name="A" unicode="A" horiz-adv-x="1696" 
d="M1012 0l-3 189h-605l-124 -189h-504l975 1434h666l64 -1434h-469zM635 539h370l-7 451h-68z" />
    <glyph glyph-name="B" unicode="B" horiz-adv-x="1570" 
d="M1562 1133q0 -114 -72.5 -210.5t-216.5 -145.5l-12 -28q39 -21 65 -40.5t55 -52t43.5 -80.5t14.5 -110q0 -122 -57 -213.5t-160 -145.5t-236.5 -80.5t-297.5 -26.5h-860l462 1434h816q456 0 456 -301zM910 857q85 0 135.5 38t50.5 90q0 85 -121 85h-326l-70 -213h331z
M794 364q85 0 139.5 38t54.5 103q0 37 -27 65.5t-99 28.5h-367l-77 -235h376z" />
    <glyph glyph-name="C" unicode="C" horiz-adv-x="1686" 
d="M681 -48q-312 0 -485.5 159t-173.5 439q0 182 77 352t211 297.5t327.5 204.5t413.5 77q130 0 242.5 -32t193 -89.5t135 -137t67 -174.5t-10.5 -201h-454q-4 108 -76 167t-187 59q-102 0 -191 -39.5t-148.5 -104t-94 -146.5t-34.5 -167q0 -123 78 -189.5t200 -66.5
q248 0 379 220h456q-50 -145 -134 -258.5t-177.5 -181.5t-205 -112t-210 -60t-198.5 -16z" />
    <glyph glyph-name="D" unicode="D" horiz-adv-x="1633" 
d="M-169 0l461 1434h662q333 0 493.5 -142t160.5 -399q0 -208 -78.5 -378t-215.5 -282t-322.5 -172.5t-400.5 -60.5h-760zM430 396h244q193 0 324.5 124t131.5 306q0 115 -75.5 163.5t-228.5 48.5h-188z" />
    <glyph glyph-name="E" unicode="E" horiz-adv-x="1413" 
d="M1466 1056h-824l-60 -184h819l-99 -302h-817l-63 -193h822l-123 -377h-1293l462 1434h1299z" />
    <glyph glyph-name="F" unicode="F" horiz-adv-x="1406" 
d="M1451 1039h-816l-65 -201h773l-121 -374h-775l-150 -464h-469l462 1434h1289z" />
    <glyph glyph-name="G" unicode="G" horiz-adv-x="1701" 
d="M961 1073q-102 0 -191 -39.5t-148.5 -104t-94 -146.5t-34.5 -167q0 -123 78 -189.5t200 -66.5q30 0 60 3t75 15t83 31.5t78 57.5t66 88h-345l79 239h809l-256 -794h-242l47 174q-95 -103 -240 -162.5t-319 -59.5q-304 0 -474 153.5t-170 433.5q0 149 48.5 290t141 258
t217 206t285.5 138.5t337 49.5q152 0 279 -44.5t210 -119.5t123.5 -177t27.5 -215h-474q-27 68 -95 108t-161 40z" />
    <glyph glyph-name="H" unicode="H" horiz-adv-x="1617" 
d="M1314 1434h473l-461 -1434h-473l162 502h-549l-162 -502h-473l461 1434h473l-174 -540h549z" />
    <glyph glyph-name="I" unicode="I" horiz-adv-x="590" 
d="M-172 0l462 1434h473l-463 -1434h-472z" />
    <glyph glyph-name="J" unicode="J" horiz-adv-x="1425" 
d="M497 -48q-694 0 -497 632h469q-72 -231 122 -231q27 0 52 5t55.5 20t56.5 39.5t51.5 66t43.5 96.5l275 854h472l-273 -850q-46 -146 -109.5 -255.5t-137.5 -181t-167.5 -115.5t-192.5 -62t-220 -18z" />
    <glyph glyph-name="K" unicode="K" horiz-adv-x="1679" 
d="M1809 1434l-771 -651l460 -783h-471l-322 548h-39l-255 -200l-112 -348h-471l467 1434h471l-162 -497h58l606 497h541z" />
    <glyph glyph-name="L" unicode="L" horiz-adv-x="1382" 
d="M-172 0l466 1434h472l-339 -1040h792l-127 -394h-1264z" />
    <glyph glyph-name="M" unicode="M" horiz-adv-x="1815" 
d="M-169 0l461 1434h573l-32 -808h41l486 806h623l-459 -1432h-454l205 633h-44l-369 -633h-350l19 633h-45l-204 -633h-451z" />
    <glyph glyph-name="N" unicode="N" horiz-adv-x="1650" 
d="M-172 0l467 1434h524l234 -789h50l259 789h461l-466 -1434h-512l-249 778h-50l-258 -778h-460z" />
    <glyph glyph-name="O" unicode="O" horiz-adv-x="1716" 
d="M681 -48q-313 0 -487 157t-174 434q0 184 78 355.5t211.5 299.5t324 205.5t402.5 77.5q313 0 486.5 -156.5t173.5 -433.5q0 -184 -78 -355.5t-211 -300t-323.5 -206t-402.5 -77.5zM758 360q101 0 190 41t148 107t93.5 147t35.5 161q0 124 -75.5 190.5t-190.5 66.5
q-101 0 -190 -41t-148 -106.5t-93.5 -146.5t-35.5 -161q0 -124 75.5 -191t190.5 -67z" />
    <glyph glyph-name="P" unicode="P" horiz-adv-x="1559" 
d="M1021 1434q271 0 408.5 -104t137.5 -330q0 -165 -59.5 -299.5t-163.5 -222t-243.5 -134.5t-300.5 -47h-402l-98 -297h-472l467 1434h726zM819 686q115 0 189 62t74 165q0 65 -39 96.5t-123 31.5h-278l-118 -357z" />
    <glyph glyph-name="Q" unicode="Q" horiz-adv-x="1730" 
d="M1696 891q0 -185 -77 -357t-216 -302l113 -164q-152 -140 -349 -268l-155 203q-163 -51 -331 -51q-313 0 -487 157t-174 434q0 184 78 355.5t211.5 299.5t324 205.5t402.5 77.5q313 0 486.5 -156.5t173.5 -433.5zM492 618q0 -124 75.5 -191t190.5 -67q101 0 190 41
t148 107t93.5 147t35.5 161q0 124 -75.5 190.5t-190.5 66.5q-101 0 -190 -41t-148 -106.5t-93.5 -146.5t-35.5 -161z" />
    <glyph glyph-name="R" unicode="R" horiz-adv-x="1575" 
d="M1579 1015q0 -185 -96 -327.5t-254 -226.5l106 -461h-454l-81 369h-378l-118 -369h-473l461 1434h747q272 0 406 -104.5t134 -314.5zM638 1041l-104 -326l328 2q86 0 160.5 53.5t74.5 144.5q0 70 -39.5 98t-125.5 28h-294z" />
    <glyph glyph-name="S" unicode="S" horiz-adv-x="1525" 
d="M556 -48q-116 0 -210.5 12t-174 37t-132.5 66.5t-82.5 98t-28 134.5t35.5 174h401q-17 -81 56 -120.5t202 -39.5q64 0 119.5 8t100.5 24t70.5 43t25.5 63q0 40 -34.5 68.5t-131.5 42.5l-114 19q-38 5 -56.5 8t-65 12t-75 17.5t-73.5 24.5t-74 34t-63 45.5t-53.5 59
t-33 74t-13.5 90.5q0 167 100.5 289t276 183.5t406.5 61.5q166 0 294.5 -34t208.5 -100t98 -162.5t-38 -221.5h-387q12 63 -47 110t-195 47q-121 0 -194 -38t-73 -101q0 -77 137 -100l84 -16q24 -5 66.5 -12t74 -12.5t76 -15.5t77.5 -19.5t72.5 -25.5t68.5 -34t57.5 -43.5
t46 -55t28.5 -68.5t11 -84q0 -119 -45.5 -213t-122.5 -155t-186 -101t-230 -57t-261 -17z" />
    <glyph glyph-name="T" unicode="T" horiz-adv-x="1597" 
d="M1778 1434l-128 -395h-505l-339 -1039h-473l339 1039h-517l127 395h1496z" />
    <glyph glyph-name="U" unicode="U" horiz-adv-x="1616" 
d="M623 -48q-395 0 -546.5 177.5t-40.5 515.5l259 789h480l-273 -825q-43 -126 3 -195t184 -69q141 0 227.5 75t139.5 237l253 777h480l-272 -833q-115 -351 -324 -500t-570 -149z" />
    <glyph glyph-name="V" unicode="V" horiz-adv-x="1706" 
d="M305 0l-64 1434h464l15 -990h55l640 990h515l-974 -1434h-651z" />
    <glyph glyph-name="W" unicode="W" horiz-adv-x="2193" 
d="M72 0l186 1434h472l-146 -929h42l500 929h374l-90 -929h42l449 929h490l-741 -1434h-636l89 689h-41l-354 -689h-636z" />
    <glyph glyph-name="X" unicode="X" horiz-adv-x="1611" 
d="M-225 0l711 712l17 41l-262 681h474l150 -419h45l372 419h522l-688 -692l-17 -41l271 -701h-496l-140 403h-45l-384 -403h-530z" />
    <glyph glyph-name="Y" unicode="Y" horiz-adv-x="1636" 
d="M1852 1434l-900 -994l-141 -440h-473l148 466l-254 968h476l127 -528h37l459 528h521z" />
    <glyph glyph-name="Z" unicode="Z" horiz-adv-x="1448" 
d="M-186 0l125 387l923 618l15 38h-713l130 391h1344l-126 -388l-923 -618l-16 -37h714l-130 -391h-1343z" />
    <glyph glyph-name="bracketleft" unicode="[" 
d="M172 336q-12 0 -15 -1v-168q1 -1 15 -1q31 0 42 20.5t11 64.5q0 45 -11 65t-42 20zM432 275v-41h-68v-65h80v-41h-130v247h130v-42h-80v-58h68zM169 125q-39 0 -61 3v244q51 7 63 7q56 0 80 -31t24 -97t-24.5 -96t-81.5 -30zM488 375h67l32 -136l33 136h68q3 -59 10 -247
h-49q0 61 -6 177l-34 -139h-46l-34 139h-2q-3 -87 -3 -177h-48q4 147 12 247zM823 125q-50 0 -70.5 29.5t-20.5 96.5t20.5 97.5t70.5 30.5t71 -30.5t21 -97.5q0 -66 -21 -96t-71 -30zM823 336q-24 0 -32.5 -20t-8.5 -65t8.5 -65t32.5 -20q25 0 33.5 20t8.5 65
q0 46 -8.5 65.5t-33.5 19.5zM806 847q41 0 66 -20.5t32 -42.5t7 -45q0 -36 -28 -60.5t-60 -28.5q-178 -20 -284 -123q5 13 14.5 34.5t38.5 77t59 97.5t72.5 76.5t82.5 34.5zM237 758q45 0 89 -33t74.5 -80t54.5 -93.5t36 -79.5l12 -33q-96 122 -266 122q-42 0 -74 25.5
t-32 63.5q0 44 28 76t78 32zM536 1012q32 -31 40.5 -85t-2.5 -109.5t-26.5 -106t-29.5 -82.5l-15 -32q17 160 -104 275q-30 30 -35.5 68.5t20.5 69.5q31 31 71 33.5t81 -31.5z" />
    <glyph glyph-name="backslash" unicode="\" 
d="M172 336q-12 0 -15 -1v-168q1 -1 15 -1q31 0 42 20.5t11 64.5q0 45 -11 65t-42 20zM432 275v-41h-68v-65h80v-41h-130v247h130v-42h-80v-58h68zM169 125q-39 0 -61 3v244q51 7 63 7q56 0 80 -31t24 -97t-24.5 -96t-81.5 -30zM488 375h67l32 -136l33 136h68q3 -59 10 -247
h-49q0 61 -6 177l-34 -139h-46l-34 139h-2q-3 -87 -3 -177h-48q4 147 12 247zM823 125q-50 0 -70.5 29.5t-20.5 96.5t20.5 97.5t70.5 30.5t71 -30.5t21 -97.5q0 -66 -21 -96t-71 -30zM823 336q-24 0 -32.5 -20t-8.5 -65t8.5 -65t32.5 -20q25 0 33.5 20t8.5 65
q0 46 -8.5 65.5t-33.5 19.5zM806 847q41 0 66 -20.5t32 -42.5t7 -45q0 -36 -28 -60.5t-60 -28.5q-178 -20 -284 -123q5 13 14.5 34.5t38.5 77t59 97.5t72.5 76.5t82.5 34.5zM237 758q45 0 89 -33t74.5 -80t54.5 -93.5t36 -79.5l12 -33q-96 122 -266 122q-42 0 -74 25.5
t-32 63.5q0 44 28 76t78 32zM536 1012q32 -31 40.5 -85t-2.5 -109.5t-26.5 -106t-29.5 -82.5l-15 -32q17 160 -104 275q-30 30 -35.5 68.5t20.5 69.5q31 31 71 33.5t81 -31.5z" />
    <glyph glyph-name="bracketright" unicode="]" 
d="M172 336q-12 0 -15 -1v-168q1 -1 15 -1q31 0 42 20.5t11 64.5q0 45 -11 65t-42 20zM432 275v-41h-68v-65h80v-41h-130v247h130v-42h-80v-58h68zM169 125q-39 0 -61 3v244q51 7 63 7q56 0 80 -31t24 -97t-24.5 -96t-81.5 -30zM488 375h67l32 -136l33 136h68q3 -59 10 -247
h-49q0 61 -6 177l-34 -139h-46l-34 139h-2q-3 -87 -3 -177h-48q4 147 12 247zM823 125q-50 0 -70.5 29.5t-20.5 96.5t20.5 97.5t70.5 30.5t71 -30.5t21 -97.5q0 -66 -21 -96t-71 -30zM823 336q-24 0 -32.5 -20t-8.5 -65t8.5 -65t32.5 -20q25 0 33.5 20t8.5 65
q0 46 -8.5 65.5t-33.5 19.5zM806 847q41 0 66 -20.5t32 -42.5t7 -45q0 -36 -28 -60.5t-60 -28.5q-178 -20 -284 -123q5 13 14.5 34.5t38.5 77t59 97.5t72.5 76.5t82.5 34.5zM237 758q45 0 89 -33t74.5 -80t54.5 -93.5t36 -79.5l12 -33q-96 122 -266 122q-42 0 -74 25.5
t-32 63.5q0 44 28 76t78 32zM536 1012q32 -31 40.5 -85t-2.5 -109.5t-26.5 -106t-29.5 -82.5l-15 -32q17 160 -104 275q-30 30 -35.5 68.5t20.5 69.5q31 31 71 33.5t81 -31.5z" />
    <glyph glyph-name="asciicircum" unicode="^" 
d="M172 336q-12 0 -15 -1v-168q1 -1 15 -1q31 0 42 20.5t11 64.5q0 45 -11 65t-42 20zM432 275v-41h-68v-65h80v-41h-130v247h130v-42h-80v-58h68zM169 125q-39 0 -61 3v244q51 7 63 7q56 0 80 -31t24 -97t-24.5 -96t-81.5 -30zM488 375h67l32 -136l33 136h68q3 -59 10 -247
h-49q0 61 -6 177l-34 -139h-46l-34 139h-2q-3 -87 -3 -177h-48q4 147 12 247zM823 125q-50 0 -70.5 29.5t-20.5 96.5t20.5 97.5t70.5 30.5t71 -30.5t21 -97.5q0 -66 -21 -96t-71 -30zM823 336q-24 0 -32.5 -20t-8.5 -65t8.5 -65t32.5 -20q25 0 33.5 20t8.5 65
q0 46 -8.5 65.5t-33.5 19.5zM806 847q41 0 66 -20.5t32 -42.5t7 -45q0 -36 -28 -60.5t-60 -28.5q-178 -20 -284 -123q5 13 14.5 34.5t38.5 77t59 97.5t72.5 76.5t82.5 34.5zM237 758q45 0 89 -33t74.5 -80t54.5 -93.5t36 -79.5l12 -33q-96 122 -266 122q-42 0 -74 25.5
t-32 63.5q0 44 28 76t78 32zM536 1012q32 -31 40.5 -85t-2.5 -109.5t-26.5 -106t-29.5 -82.5l-15 -32q17 160 -104 275q-30 30 -35.5 68.5t20.5 69.5q31 31 71 33.5t81 -31.5z" />
    <glyph glyph-name="underscore" unicode="_" 
d="M172 336q-12 0 -15 -1v-168q1 -1 15 -1q31 0 42 20.5t11 64.5q0 45 -11 65t-42 20zM432 275v-41h-68v-65h80v-41h-130v247h130v-42h-80v-58h68zM169 125q-39 0 -61 3v244q51 7 63 7q56 0 80 -31t24 -97t-24.5 -96t-81.5 -30zM488 375h67l32 -136l33 136h68q3 -59 10 -247
h-49q0 61 -6 177l-34 -139h-46l-34 139h-2q-3 -87 -3 -177h-48q4 147 12 247zM823 125q-50 0 -70.5 29.5t-20.5 96.5t20.5 97.5t70.5 30.5t71 -30.5t21 -97.5q0 -66 -21 -96t-71 -30zM823 336q-24 0 -32.5 -20t-8.5 -65t8.5 -65t32.5 -20q25 0 33.5 20t8.5 65
q0 46 -8.5 65.5t-33.5 19.5zM806 847q41 0 66 -20.5t32 -42.5t7 -45q0 -36 -28 -60.5t-60 -28.5q-178 -20 -284 -123q5 13 14.5 34.5t38.5 77t59 97.5t72.5 76.5t82.5 34.5zM237 758q45 0 89 -33t74.5 -80t54.5 -93.5t36 -79.5l12 -33q-96 122 -266 122q-42 0 -74 25.5
t-32 63.5q0 44 28 76t78 32zM536 1012q32 -31 40.5 -85t-2.5 -109.5t-26.5 -106t-29.5 -82.5l-15 -32q17 160 -104 275q-30 30 -35.5 68.5t20.5 69.5q31 31 71 33.5t81 -31.5z" />
    <glyph glyph-name="grave" unicode="`" 
d="M172 336q-12 0 -15 -1v-168q1 -1 15 -1q31 0 42 20.5t11 64.5q0 45 -11 65t-42 20zM432 275v-41h-68v-65h80v-41h-130v247h130v-42h-80v-58h68zM169 125q-39 0 -61 3v244q51 7 63 7q56 0 80 -31t24 -97t-24.5 -96t-81.5 -30zM488 375h67l32 -136l33 136h68q3 -59 10 -247
h-49q0 61 -6 177l-34 -139h-46l-34 139h-2q-3 -87 -3 -177h-48q4 147 12 247zM823 125q-50 0 -70.5 29.5t-20.5 96.5t20.5 97.5t70.5 30.5t71 -30.5t21 -97.5q0 -66 -21 -96t-71 -30zM823 336q-24 0 -32.5 -20t-8.5 -65t8.5 -65t32.5 -20q25 0 33.5 20t8.5 65
q0 46 -8.5 65.5t-33.5 19.5zM806 847q41 0 66 -20.5t32 -42.5t7 -45q0 -36 -28 -60.5t-60 -28.5q-178 -20 -284 -123q5 13 14.5 34.5t38.5 77t59 97.5t72.5 76.5t82.5 34.5zM237 758q45 0 89 -33t74.5 -80t54.5 -93.5t36 -79.5l12 -33q-96 122 -266 122q-42 0 -74 25.5
t-32 63.5q0 44 28 76t78 32zM536 1012q32 -31 40.5 -85t-2.5 -109.5t-26.5 -106t-29.5 -82.5l-15 -32q17 160 -104 275q-30 30 -35.5 68.5t20.5 69.5q31 31 71 33.5t81 -31.5z" />
    <glyph glyph-name="a" unicode="a" horiz-adv-x="1696" 
d="M1012 0l-3 189h-605l-124 -189h-504l975 1434h666l64 -1434h-469zM635 539h370l-7 451h-68z" />
    <glyph glyph-name="b" unicode="b" horiz-adv-x="1570" 
d="M1562 1133q0 -114 -72.5 -210.5t-216.5 -145.5l-12 -28q39 -21 65 -40.5t55 -52t43.5 -80.5t14.5 -110q0 -122 -57 -213.5t-160 -145.5t-236.5 -80.5t-297.5 -26.5h-860l462 1434h816q456 0 456 -301zM910 857q85 0 135.5 38t50.5 90q0 85 -121 85h-326l-70 -213h331z
M794 364q85 0 139.5 38t54.5 103q0 37 -27 65.5t-99 28.5h-367l-77 -235h376z" />
    <glyph glyph-name="c" unicode="c" horiz-adv-x="1686" 
d="M681 -48q-312 0 -485.5 159t-173.5 439q0 182 77 352t211 297.5t327.5 204.5t413.5 77q130 0 242.5 -32t193 -89.5t135 -137t67 -174.5t-10.5 -201h-454q-4 108 -76 167t-187 59q-102 0 -191 -39.5t-148.5 -104t-94 -146.5t-34.5 -167q0 -123 78 -189.5t200 -66.5
q248 0 379 220h456q-50 -145 -134 -258.5t-177.5 -181.5t-205 -112t-210 -60t-198.5 -16z" />
    <glyph glyph-name="d" unicode="d" horiz-adv-x="1633" 
d="M-169 0l461 1434h662q333 0 493.5 -142t160.5 -399q0 -208 -78.5 -378t-215.5 -282t-322.5 -172.5t-400.5 -60.5h-760zM430 396h244q193 0 324.5 124t131.5 306q0 115 -75.5 163.5t-228.5 48.5h-188z" />
    <glyph glyph-name="e" unicode="e" horiz-adv-x="1413" 
d="M1466 1056h-824l-60 -184h819l-99 -302h-817l-63 -193h822l-123 -377h-1293l462 1434h1299z" />
    <glyph glyph-name="f" unicode="f" horiz-adv-x="1406" 
d="M1451 1039h-816l-65 -201h773l-121 -374h-775l-150 -464h-469l462 1434h1289z" />
    <glyph glyph-name="g" unicode="g" horiz-adv-x="1701" 
d="M961 1073q-102 0 -191 -39.5t-148.5 -104t-94 -146.5t-34.5 -167q0 -123 78 -189.5t200 -66.5q30 0 60 3t75 15t83 31.5t78 57.5t66 88h-345l79 239h809l-256 -794h-242l47 174q-95 -103 -240 -162.5t-319 -59.5q-304 0 -474 153.5t-170 433.5q0 149 48.5 290t141 258
t217 206t285.5 138.5t337 49.5q152 0 279 -44.5t210 -119.5t123.5 -177t27.5 -215h-474q-27 68 -95 108t-161 40z" />
    <glyph glyph-name="h" unicode="h" horiz-adv-x="1617" 
d="M1314 1434h473l-461 -1434h-473l162 502h-549l-162 -502h-473l461 1434h473l-174 -540h549z" />
    <glyph glyph-name="i" unicode="i" horiz-adv-x="590" 
d="M-172 0l462 1434h473l-463 -1434h-472z" />
    <glyph glyph-name="j" unicode="j" horiz-adv-x="1425" 
d="M497 -48q-694 0 -497 632h469q-72 -231 122 -231q27 0 52 5t55.5 20t56.5 39.5t51.5 66t43.5 96.5l275 854h472l-273 -850q-46 -146 -109.5 -255.5t-137.5 -181t-167.5 -115.5t-192.5 -62t-220 -18z" />
    <glyph glyph-name="k" unicode="k" horiz-adv-x="1679" 
d="M1809 1434l-771 -651l460 -783h-471l-322 548h-39l-255 -200l-112 -348h-471l467 1434h471l-162 -497h58l606 497h541z" />
    <glyph glyph-name="l" unicode="l" horiz-adv-x="1382" 
d="M-172 0l466 1434h472l-339 -1040h792l-127 -394h-1264z" />
    <glyph glyph-name="m" unicode="m" horiz-adv-x="1815" 
d="M-169 0l461 1434h573l-32 -808h41l486 806h623l-459 -1432h-454l205 633h-44l-369 -633h-350l19 633h-45l-204 -633h-451z" />
    <glyph glyph-name="n" unicode="n" horiz-adv-x="1650" 
d="M-172 0l467 1434h524l234 -789h50l259 789h461l-466 -1434h-512l-249 778h-50l-258 -778h-460z" />
    <glyph glyph-name="o" unicode="o" horiz-adv-x="1716" 
d="M681 -48q-313 0 -487 157t-174 434q0 184 78 355.5t211.5 299.5t324 205.5t402.5 77.5q313 0 486.5 -156.5t173.5 -433.5q0 -184 -78 -355.5t-211 -300t-323.5 -206t-402.5 -77.5zM758 360q101 0 190 41t148 107t93.5 147t35.5 161q0 124 -75.5 190.5t-190.5 66.5
q-101 0 -190 -41t-148 -106.5t-93.5 -146.5t-35.5 -161q0 -124 75.5 -191t190.5 -67z" />
    <glyph glyph-name="p" unicode="p" horiz-adv-x="1559" 
d="M1021 1434q271 0 408.5 -104t137.5 -330q0 -165 -59.5 -299.5t-163.5 -222t-243.5 -134.5t-300.5 -47h-402l-98 -297h-472l467 1434h726zM819 686q115 0 189 62t74 165q0 65 -39 96.5t-123 31.5h-278l-118 -357z" />
    <glyph glyph-name="q" unicode="q" horiz-adv-x="1730" 
d="M1696 891q0 -185 -77 -357t-216 -302l113 -164q-152 -140 -349 -268l-155 203q-163 -51 -331 -51q-313 0 -487 157t-174 434q0 184 78 355.5t211.5 299.5t324 205.5t402.5 77.5q313 0 486.5 -156.5t173.5 -433.5zM492 618q0 -124 75.5 -191t190.5 -67q101 0 190 41
t148 107t93.5 147t35.5 161q0 124 -75.5 190.5t-190.5 66.5q-101 0 -190 -41t-148 -106.5t-93.5 -146.5t-35.5 -161z" />
    <glyph glyph-name="r" unicode="r" horiz-adv-x="1575" 
d="M1579 1015q0 -185 -96 -327.5t-254 -226.5l106 -461h-454l-81 369h-378l-118 -369h-473l461 1434h747q272 0 406 -104.5t134 -314.5zM638 1041l-104 -326l328 2q86 0 160.5 53.5t74.5 144.5q0 70 -39.5 98t-125.5 28h-294z" />
    <glyph glyph-name="s" unicode="s" horiz-adv-x="1525" 
d="M556 -48q-116 0 -210.5 12t-174 37t-132.5 66.5t-82.5 98t-28 134.5t35.5 174h401q-17 -81 56 -120.5t202 -39.5q64 0 119.5 8t100.5 24t70.5 43t25.5 63q0 40 -34.5 68.5t-131.5 42.5l-114 19q-38 5 -56.5 8t-65 12t-75 17.5t-73.5 24.5t-74 34t-63 45.5t-53.5 59
t-33 74t-13.5 90.5q0 167 100.5 289t276 183.5t406.5 61.5q166 0 294.5 -34t208.5 -100t98 -162.5t-38 -221.5h-387q12 63 -47 110t-195 47q-121 0 -194 -38t-73 -101q0 -77 137 -100l84 -16q24 -5 66.5 -12t74 -12.5t76 -15.5t77.5 -19.5t72.5 -25.5t68.5 -34t57.5 -43.5
t46 -55t28.5 -68.5t11 -84q0 -119 -45.5 -213t-122.5 -155t-186 -101t-230 -57t-261 -17z" />
    <glyph glyph-name="t" unicode="t" horiz-adv-x="1597" 
d="M1778 1434l-128 -395h-505l-339 -1039h-473l339 1039h-517l127 395h1496z" />
    <glyph glyph-name="u" unicode="u" horiz-adv-x="1616" 
d="M623 -48q-395 0 -546.5 177.5t-40.5 515.5l259 789h480l-273 -825q-43 -126 3 -195t184 -69q141 0 227.5 75t139.5 237l253 777h480l-272 -833q-115 -351 -324 -500t-570 -149z" />
    <glyph glyph-name="v" unicode="v" horiz-adv-x="1706" 
d="M305 0l-64 1434h464l15 -990h55l640 990h515l-974 -1434h-651z" />
    <glyph glyph-name="w" unicode="w" horiz-adv-x="2193" 
d="M72 0l186 1434h472l-146 -929h42l500 929h374l-90 -929h42l449 929h490l-741 -1434h-636l89 689h-41l-354 -689h-636z" />
    <glyph glyph-name="x" unicode="x" horiz-adv-x="1611" 
d="M-225 0l711 712l17 41l-262 681h474l150 -419h45l372 419h522l-688 -692l-17 -41l271 -701h-496l-140 403h-45l-384 -403h-530z" />
    <glyph glyph-name="y" unicode="y" horiz-adv-x="1636" 
d="M1852 1434l-900 -994l-141 -440h-473l148 466l-254 968h476l127 -528h37l459 528h521z" />
    <glyph glyph-name="z" unicode="z" horiz-adv-x="1448" 
d="M-186 0l125 387l923 618l15 38h-713l130 391h1344l-126 -388l-923 -618l-16 -37h714l-130 -391h-1343z" />
    <glyph glyph-name="braceleft" unicode="{" 
d="M172 336q-12 0 -15 -1v-168q1 -1 15 -1q31 0 42 20.5t11 64.5q0 45 -11 65t-42 20zM432 275v-41h-68v-65h80v-41h-130v247h130v-42h-80v-58h68zM169 125q-39 0 -61 3v244q51 7 63 7q56 0 80 -31t24 -97t-24.5 -96t-81.5 -30zM488 375h67l32 -136l33 136h68q3 -59 10 -247
h-49q0 61 -6 177l-34 -139h-46l-34 139h-2q-3 -87 -3 -177h-48q4 147 12 247zM823 125q-50 0 -70.5 29.5t-20.5 96.5t20.5 97.5t70.5 30.5t71 -30.5t21 -97.5q0 -66 -21 -96t-71 -30zM823 336q-24 0 -32.5 -20t-8.5 -65t8.5 -65t32.5 -20q25 0 33.5 20t8.5 65
q0 46 -8.5 65.5t-33.5 19.5zM806 847q41 0 66 -20.5t32 -42.5t7 -45q0 -36 -28 -60.5t-60 -28.5q-178 -20 -284 -123q5 13 14.5 34.5t38.5 77t59 97.5t72.5 76.5t82.5 34.5zM237 758q45 0 89 -33t74.5 -80t54.5 -93.5t36 -79.5l12 -33q-96 122 -266 122q-42 0 -74 25.5
t-32 63.5q0 44 28 76t78 32zM536 1012q32 -31 40.5 -85t-2.5 -109.5t-26.5 -106t-29.5 -82.5l-15 -32q17 160 -104 275q-30 30 -35.5 68.5t20.5 69.5q31 31 71 33.5t81 -31.5z" />
    <glyph glyph-name="bar" unicode="|" 
d="M172 336q-12 0 -15 -1v-168q1 -1 15 -1q31 0 42 20.5t11 64.5q0 45 -11 65t-42 20zM432 275v-41h-68v-65h80v-41h-130v247h130v-42h-80v-58h68zM169 125q-39 0 -61 3v244q51 7 63 7q56 0 80 -31t24 -97t-24.5 -96t-81.5 -30zM488 375h67l32 -136l33 136h68q3 -59 10 -247
h-49q0 61 -6 177l-34 -139h-46l-34 139h-2q-3 -87 -3 -177h-48q4 147 12 247zM823 125q-50 0 -70.5 29.5t-20.5 96.5t20.5 97.5t70.5 30.5t71 -30.5t21 -97.5q0 -66 -21 -96t-71 -30zM823 336q-24 0 -32.5 -20t-8.5 -65t8.5 -65t32.5 -20q25 0 33.5 20t8.5 65
q0 46 -8.5 65.5t-33.5 19.5zM806 847q41 0 66 -20.5t32 -42.5t7 -45q0 -36 -28 -60.5t-60 -28.5q-178 -20 -284 -123q5 13 14.5 34.5t38.5 77t59 97.5t72.5 76.5t82.5 34.5zM237 758q45 0 89 -33t74.5 -80t54.5 -93.5t36 -79.5l12 -33q-96 122 -266 122q-42 0 -74 25.5
t-32 63.5q0 44 28 76t78 32zM536 1012q32 -31 40.5 -85t-2.5 -109.5t-26.5 -106t-29.5 -82.5l-15 -32q17 160 -104 275q-30 30 -35.5 68.5t20.5 69.5q31 31 71 33.5t81 -31.5z" />
    <glyph glyph-name="braceright" unicode="}" 
d="M172 336q-12 0 -15 -1v-168q1 -1 15 -1q31 0 42 20.5t11 64.5q0 45 -11 65t-42 20zM432 275v-41h-68v-65h80v-41h-130v247h130v-42h-80v-58h68zM169 125q-39 0 -61 3v244q51 7 63 7q56 0 80 -31t24 -97t-24.5 -96t-81.5 -30zM488 375h67l32 -136l33 136h68q3 -59 10 -247
h-49q0 61 -6 177l-34 -139h-46l-34 139h-2q-3 -87 -3 -177h-48q4 147 12 247zM823 125q-50 0 -70.5 29.5t-20.5 96.5t20.5 97.5t70.5 30.5t71 -30.5t21 -97.5q0 -66 -21 -96t-71 -30zM823 336q-24 0 -32.5 -20t-8.5 -65t8.5 -65t32.5 -20q25 0 33.5 20t8.5 65
q0 46 -8.5 65.5t-33.5 19.5zM806 847q41 0 66 -20.5t32 -42.5t7 -45q0 -36 -28 -60.5t-60 -28.5q-178 -20 -284 -123q5 13 14.5 34.5t38.5 77t59 97.5t72.5 76.5t82.5 34.5zM237 758q45 0 89 -33t74.5 -80t54.5 -93.5t36 -79.5l12 -33q-96 122 -266 122q-42 0 -74 25.5
t-32 63.5q0 44 28 76t78 32zM536 1012q32 -31 40.5 -85t-2.5 -109.5t-26.5 -106t-29.5 -82.5l-15 -32q17 160 -104 275q-30 30 -35.5 68.5t20.5 69.5q31 31 71 33.5t81 -31.5z" />
    <glyph glyph-name="asciitilde" unicode="~" 
d="M172 336q-12 0 -15 -1v-168q1 -1 15 -1q31 0 42 20.5t11 64.5q0 45 -11 65t-42 20zM432 275v-41h-68v-65h80v-41h-130v247h130v-42h-80v-58h68zM169 125q-39 0 -61 3v244q51 7 63 7q56 0 80 -31t24 -97t-24.5 -96t-81.5 -30zM488 375h67l32 -136l33 136h68q3 -59 10 -247
h-49q0 61 -6 177l-34 -139h-46l-34 139h-2q-3 -87 -3 -177h-48q4 147 12 247zM823 125q-50 0 -70.5 29.5t-20.5 96.5t20.5 97.5t70.5 30.5t71 -30.5t21 -97.5q0 -66 -21 -96t-71 -30zM823 336q-24 0 -32.5 -20t-8.5 -65t8.5 -65t32.5 -20q25 0 33.5 20t8.5 65
q0 46 -8.5 65.5t-33.5 19.5zM806 847q41 0 66 -20.5t32 -42.5t7 -45q0 -36 -28 -60.5t-60 -28.5q-178 -20 -284 -123q5 13 14.5 34.5t38.5 77t59 97.5t72.5 76.5t82.5 34.5zM237 758q45 0 89 -33t74.5 -80t54.5 -93.5t36 -79.5l12 -33q-96 122 -266 122q-42 0 -74 25.5
t-32 63.5q0 44 28 76t78 32zM536 1012q32 -31 40.5 -85t-2.5 -109.5t-26.5 -106t-29.5 -82.5l-15 -32q17 160 -104 275q-30 30 -35.5 68.5t20.5 69.5q31 31 71 33.5t81 -31.5z" />
    </font>
</defs>
</svg>
